<svg width="28" height="28" viewBox="0 0 28 28" fill="none" xmlns="http://www.w3.org/2000/svg">
<path opacity="0.5" d="M14 28C21.732 28 28 21.732 28 14C28 6.26801 21.732 0 14 0C6.26801 0 0 6.26801 0 14C0 21.732 6.26801 28 14 28Z" fill="#242424"/>
<path fill-rule="evenodd" clip-rule="evenodd" d="M9.44867 12.5467C9.61267 12.3827 9.85267 12.3187 10.0767 12.3787C10.3007 12.4387 10.4757 12.6147 10.5347 12.8387C10.5947 13.0627 10.5287 13.3017 10.3647 13.4657C10.1047 13.7217 9.79267 14.0327 9.47667 14.3477L9.20667 14.6177L9.07267 14.7497L8.81267 15.0097L8.24867 15.5717L8.00367 15.8147L7.89467 15.9247L7.83667 15.9817L7.82867 15.9897C6.67467 17.1447 6.67467 19.0167 7.82867 20.1707C8.98367 21.3257 10.8567 21.3257 12.0107 20.1707L14.5357 17.6357C14.6987 17.4717 14.9377 17.4067 15.1617 17.4657C15.3857 17.5257 15.5617 17.7007 15.6217 17.9247C15.6817 18.1477 15.6187 18.3867 15.4547 18.5517L12.9277 21.0867C12.1327 21.8877 11.0487 22.3367 9.91967 22.3337C8.19967 22.3337 6.64967 21.2967 5.98967 19.7077C5.33267 18.1187 5.69567 16.2897 6.91267 15.0727L9.44867 12.5467ZM16.3017 10.7827C16.5557 10.5297 16.9657 10.5297 17.2187 10.7827C17.4717 11.0357 17.4717 11.4457 17.2187 11.6987L11.6967 17.2187C11.4437 17.4727 11.0337 17.4727 10.7807 17.2187C10.5277 16.9667 10.5277 16.5557 10.7807 16.3027L16.3017 10.7827ZM15.0747 6.91467C15.9997 5.98467 17.3027 5.53667 18.6037 5.69967C19.3477 5.78867 20.0547 6.07567 20.6507 6.53067C21.6297 7.27367 22.2387 8.40367 22.3237 9.63067C22.4077 10.8557 21.9577 12.0587 21.0897 12.9287L18.5527 15.4547C18.3877 15.6187 18.1487 15.6817 17.9247 15.6217C17.7007 15.5607 17.5267 15.3857 17.4667 15.1617C17.4067 14.9367 17.4717 14.6977 17.6367 14.5347L20.1737 12.0127C20.9207 11.2647 21.2117 10.1757 20.9377 9.15567C20.6647 8.13567 19.8677 7.33867 18.8457 7.06567C17.8257 6.79167 16.7357 7.08367 15.9897 7.83167L13.4667 10.3667C13.3027 10.5317 13.0637 10.5967 12.8387 10.5367C12.6147 10.4767 12.4387 10.3027 12.3787 10.0777C12.3187 9.85367 12.3817 9.61367 12.5467 9.44967L15.0747 6.91467Z" fill="white"/>
</svg>
