 <svg
      width="32"
      height="32"
      viewBox="0 0 32 32"
      fill="none"
      xmlns="http://www.w3.org/2000/svg"
    >
      <path
        d="M16 32C24.8366 32 32 24.8366 32 16C32 7.16344 24.8366 0 16 0C7.16344 0 0 7.16344 0 16C0 24.8366 7.16344 32 16 32Z"
        fill="#EE0033"
      />
      <path
        d="M14.2558 5.97559H12.0931C11.545 5.97559 11.0193 6.19332 10.6318 6.58088C10.2442 6.96844 10.0265 7.49408 10.0265 8.04218V23.962C10.0265 24.2334 10.0799 24.5021 10.1838 24.7529C10.2877 25.0036 10.4399 25.2314 10.6318 25.4233C10.8237 25.6152 11.0515 25.7675 11.3022 25.8713C11.553 25.9752 11.8217 26.0286 12.0931 26.0286H14.2558C14.3236 26.0286 14.3908 26.0153 14.4535 25.9893C14.5162 25.9633 14.5731 25.9253 14.6211 25.8773C14.6691 25.8293 14.7071 25.7724 14.7331 25.7097C14.7591 25.647 14.7724 25.5798 14.7724 25.512V23.966C14.7724 23.829 14.718 23.6976 14.6211 23.6007C14.5242 23.5038 14.3928 23.4494 14.2558 23.4494H10.8986V8.55181H14.2558C14.3926 8.55075 14.5235 8.49544 14.6196 8.39802C14.7157 8.30059 14.7692 8.16901 14.7684 8.03216V6.49224C14.7684 6.35591 14.7145 6.2251 14.6185 6.12832C14.5225 6.03155 14.3921 5.97665 14.2558 5.97559Z"
        fill="white"
      />
      <path
        d="M19.9069 5.97559H17.7442C17.6073 5.97585 17.4762 6.0304 17.3795 6.12726C17.2828 6.22412 17.2285 6.35538 17.2285 6.49223V8.03216C17.2285 8.16901 17.2828 8.30027 17.3795 8.39713C17.4762 8.49399 17.6073 8.54854 17.7442 8.54881H21.1024V23.4514H17.7442C17.6073 23.4517 17.4762 23.5062 17.3795 23.6031C17.2828 23.7 17.2285 23.8312 17.2285 23.9681V25.511C17.2285 25.6478 17.2828 25.7791 17.3795 25.876C17.4762 25.9728 17.6073 26.0274 17.7442 26.0276H19.9069C20.1788 26.0282 20.4481 25.975 20.6994 25.8713C20.9507 25.7675 21.1791 25.6152 21.3715 25.4231C21.5638 25.2309 21.7163 25.0027 21.8203 24.7514C21.9243 24.5002 21.9777 24.2309 21.9775 23.9591V8.04217C21.9775 7.77045 21.9239 7.50139 21.8198 7.2504C21.7157 6.99941 21.5631 6.77141 21.3707 6.57946C21.1784 6.38751 20.9501 6.23537 20.6989 6.13175C20.4477 6.02813 20.1786 5.97506 19.9069 5.97559Z"
        fill="white"
      />
    </svg>