 <svg
      width="32"
      height="33"
      viewBox="0 0 32 33"
      fill="none"
      xmlns="http://www.w3.org/2000/svg"
    >
      <path opacity="0.01" d="M31 6.6665H1V26.6665H31V6.6665Z" fill="white" />
      <path
        d="M19.5672 10.1255H12.3877V23.0502H19.5672V10.1255Z"
        fill="#FF5F00"
      />
      <path
        d="M12.8434 16.5891C12.8407 14.0666 13.9964 11.683 15.9773 10.1256C12.6131 7.47724 7.78209 7.863 4.87927 11.0118C1.97644 14.1606 1.97644 19.0153 4.87927 22.1641C7.78209 25.3129 12.6131 25.6987 15.9773 23.0503C13.997 21.4933 12.8414 19.1108 12.8434 16.5891Z"
        fill="#EB001B"
      />
      <path
        d="M29.2539 16.589C29.2538 19.7359 27.46 22.6065 24.6343 23.9816C21.8087 25.3568 18.4472 24.9951 15.9775 23.0502C17.9569 21.4919 19.1126 19.1097 19.1126 16.5878C19.1126 14.066 17.9569 11.6838 15.9775 10.1255C18.4472 8.18059 21.8087 7.81889 24.6343 9.19406C27.46 10.5692 29.2538 13.4398 29.2539 16.5867V16.589Z"
        fill="#F79E1B"
      />
    </svg>