<svg width="10" height="10" viewBox="0 0 10 10" fill="none" xmlns="http://www.w3.org/2000/svg">
<path d="M5 7.625C5.20711 7.625 5.375 7.45711 5.375 7.25C5.375 7.04289 5.20711 6.875 5 6.875C4.79289 6.875 4.625 7.04289 4.625 7.25C4.625 7.45711 4.79289 7.625 5 7.625Z" fill="#0B74E5"/>
<path d="M4.3465 3.30301C4.66317 3.16306 5.02495 3.10341 5.33095 3.13213C5.64612 3.16172 5.83036 3.27452 5.90728 3.39901C6.09336 3.70014 6.02001 4.11989 5.52299 4.54103C4.96727 5.01191 4.62504 5.37232 4.62504 5.93751C4.62504 6.14461 4.79294 6.31251 5.00004 6.31251C5.20715 6.31251 5.37504 6.14461 5.37504 5.93751C5.37504 5.7527 5.43857 5.5956 6.00784 5.11324C6.63583 4.58112 7.01547 3.76563 6.5453 3.00476C6.2941 2.59825 5.83391 2.42605 5.40104 2.38541C4.95901 2.34392 4.46916 2.42883 4.04334 2.61701C3.85391 2.70072 3.7682 2.92215 3.85192 3.11159C3.93563 3.30102 4.15706 3.38672 4.3465 3.30301Z" fill="#0B74E5"/>
<path fill-rule="evenodd" clip-rule="evenodd" d="M0.5 5C0.5 2.51472 2.51472 0.5 5 0.5C7.48528 0.5 9.5 2.51472 9.5 5C9.5 7.48528 7.48528 9.5 5 9.5C2.51472 9.5 0.5 7.48528 0.5 5ZM5 1.25C2.92893 1.25 1.25 2.92893 1.25 5C1.25 7.07107 2.92893 8.75 5 8.75C7.07107 8.75 8.75 7.07107 8.75 5C8.75 2.92893 7.07107 1.25 5 1.25Z" fill="#0B74E5"/>
</svg>
