<svg width="12" height="12" viewBox="0 0 12 12" fill="none" xmlns="http://www.w3.org/2000/svg">
<path d="M10.425 0.375C10.275 0.15 10.05 0 9.75 0H2.25C1.95 0 1.725 0.15 1.575 0.375C0 3.375 0 3.525 0 3.75C0 4.575 0.675 5.25 1.5 5.25V11.25C1.5 11.7 1.8 12 2.25 12H9.75C10.2 12 10.5 11.7 10.5 11.25V5.25C11.325 5.25 12 4.575 12 3.75C12 3.525 12 3.375 10.425 0.375ZM7.5 10.5V7.5H4.5V10.5H3V5.025C3.225 5.175 3.45 5.25 3.75 5.25C4.2 5.25 4.575 5.025 4.875 4.725C5.175 5.025 5.55 5.25 6 5.25C6.45 5.25 6.825 5.025 7.125 4.725C7.425 5.025 7.8 5.25 8.25 5.25C8.55 5.25 8.775 5.175 9 5.025V10.5H7.5Z" fill="white"/>
</svg>
