  <svg
      width="32"
      height="33"
      viewBox="0 0 32 33"
      fill="none"
      xmlns="http://www.w3.org/2000/svg"
    >
      <path opacity="0.01" d="M32 5.6665H0V26.9998H32V5.6665Z" fill="white" />
      <path
        d="M29.5619 22.6088C29.5619 24.9502 27.6552 26.8568 25.3138 26.8568H2.2002V10.0318C2.2002 7.69031 4.10682 5.78369 6.44828 5.78369H29.5619V22.6088Z"
        fill="white"
      />
      <path
        d="M22.0356 18.2936H23.7917C23.8419 18.2936 23.959 18.2769 24.0092 18.2769C24.3437 18.21 24.628 17.9089 24.628 17.4908C24.628 17.0894 24.3437 16.7884 24.0092 16.7047C23.959 16.688 23.8586 16.688 23.7917 16.688H22.0356V18.2936Z"
        fill="url(#paint0_linear_1_2009)"
      />
      <path
        d="M23.5909 7.20508C21.9184 7.20508 20.547 8.55978 20.547 10.249V13.41H24.8453C24.9456 13.41 25.0627 13.41 25.1463 13.4267C26.1163 13.4769 26.8355 13.9786 26.8355 14.8483C26.8355 15.534 26.3505 16.1194 25.4473 16.2364V16.2699C26.4341 16.3368 27.1867 16.8887 27.1867 17.7417C27.1867 18.6615 26.3505 19.2636 25.2467 19.2636H20.5303V25.4518H24.9958C26.6683 25.4518 28.0397 24.0971 28.0397 22.4079V7.20508H23.5909Z"
        fill="url(#paint1_linear_1_2009)"
      />
      <path
        d="M24.4106 15.0489C24.4106 14.6475 24.1262 14.3799 23.7917 14.3297C23.7583 14.3297 23.6747 14.313 23.6245 14.313H22.0356V15.7848H23.6245C23.6747 15.7848 23.775 15.7848 23.7917 15.768C24.1262 15.7179 24.4106 15.4503 24.4106 15.0489Z"
        fill="url(#paint2_linear_1_2009)"
      />
      <path
        d="M6.76619 7.20508C5.09372 7.20508 3.72229 8.55978 3.72229 10.249V17.7584C4.57525 18.1765 5.46166 18.4441 6.34808 18.4441C7.40173 18.4441 7.97038 17.8086 7.97038 16.9389V13.3932H10.5794V16.9222C10.5794 18.2936 9.72647 19.4141 6.83309 19.4141C5.077 19.4141 3.70557 19.0295 3.70557 19.0295V25.435H8.17107C9.84355 25.435 11.215 24.0803 11.215 22.3911V7.20508H6.76619Z"
        fill="url(#paint3_linear_1_2009)"
      />
      <path
        d="M15.1787 7.20508C13.5062 7.20508 12.1348 8.55978 12.1348 10.249V14.2295C12.9041 13.5772 14.2421 13.1591 16.3996 13.2594C17.5536 13.3096 18.7912 13.6274 18.7912 13.6274V14.9152C18.1724 14.5974 17.4365 14.3131 16.4832 14.2462C14.8442 14.1291 13.8574 14.9319 13.8574 16.3368C13.8574 17.7584 14.8442 18.5612 16.4832 18.4274C17.4365 18.3605 18.1724 18.0594 18.7912 17.7584V19.0462C18.7912 19.0462 17.5703 19.364 16.3996 19.4141C14.2421 19.5145 12.9041 19.0964 12.1348 18.4441V25.4685H16.6003C18.2727 25.4685 19.6442 24.1138 19.6442 22.4246V7.20508H15.1787Z"
        fill="url(#paint4_linear_1_2009)"
      />
      <defs>
        <linearGradient
          id="paint0_linear_1_2009"
          x1="20.5439"
          y1="19.8202"
          x2="28.0604"
          y2="19.8202"
          gradientUnits="userSpaceOnUse"
        >
          <stop stop-color="#007940" />
          <stop offset="0.2285" stop-color="#00873F" />
          <stop offset="0.7433" stop-color="#40A737" />
          <stop offset="1" stop-color="#5CB531" />
        </linearGradient>
        <linearGradient
          id="paint1_linear_1_2009"
          x1="20.544"
          y1="25.4525"
          x2="28.0602"
          y2="25.4525"
          gradientUnits="userSpaceOnUse"
        >
          <stop stop-color="#007940" />
          <stop offset="0.2285" stop-color="#00873F" />
          <stop offset="0.7433" stop-color="#40A737" />
          <stop offset="1" stop-color="#5CB531" />
        </linearGradient>
        <linearGradient
          id="paint2_linear_1_2009"
          x1="20.5438"
          y1="17.3752"
          x2="28.0598"
          y2="17.3752"
          gradientUnits="userSpaceOnUse"
        >
          <stop stop-color="#007940" />
          <stop offset="0.2285" stop-color="#00873F" />
          <stop offset="0.7433" stop-color="#40A737" />
          <stop offset="1" stop-color="#5CB531" />
        </linearGradient>
        <linearGradient
          id="paint3_linear_1_2009"
          x1="3.71849"
          y1="25.5848"
          x2="11.3507"
          y2="25.5848"
          gradientUnits="userSpaceOnUse"
        >
          <stop stop-color="#1F286F" />
          <stop offset="0.4751" stop-color="#004E94" />
          <stop offset="0.8261" stop-color="#0066B1" />
          <stop offset="1" stop-color="#006FBC" />
        </linearGradient>
        <linearGradient
          id="paint4_linear_1_2009"
          x1="12.0913"
          y1="25.3345"
          x2="19.5036"
          y2="25.3345"
          gradientUnits="userSpaceOnUse"
        >
          <stop stop-color="#6C2C2F" />
          <stop offset="0.1735" stop-color="#882730" />
          <stop offset="0.5731" stop-color="#BE1833" />
          <stop offset="0.8585" stop-color="#DC0436" />
          <stop offset="1" stop-color="#E60039" />
        </linearGradient>
      </defs>
    </svg>