<svg width="28" height="28" viewBox="0 0 28 28" fill="none" xmlns="http://www.w3.org/2000/svg">
<path d="M14 28C21.732 28 28 21.732 28 14C28 6.26801 21.732 0 14 0C6.26801 0 0 6.26801 0 14C0 21.732 6.26801 28 14 28Z" fill="#CC2127"/>
<path fill-rule="evenodd" clip-rule="evenodd" d="M14.2 6.79999C10.334 6.79999 7.19995 9.93799 7.19995 13.807C7.19995 16.692 8.94095 19.169 11.428 20.244C11.411 19.756 11.428 19.174 11.552 18.645L12.456 14.813C12.456 14.813 12.232 14.363 12.232 13.7C12.232 12.659 12.836 11.88 13.586 11.88C14.226 11.88 14.535 12.361 14.535 12.936C14.535 13.579 14.125 14.541 13.913 15.431C13.738 16.177 14.289 16.786 15.023 16.786C16.353 16.786 17.249 15.075 17.249 13.046C17.249 11.506 16.214 10.352 14.327 10.352C12.197 10.352 10.867 11.942 10.867 13.72C10.867 14.332 11.049 14.765 11.332 15.1C11.462 15.253 11.479 15.315 11.432 15.492C11.398 15.621 11.322 15.932 11.29 16.056C11.243 16.234 11.098 16.296 10.938 16.231C9.95695 15.831 9.49795 14.755 9.49795 13.545C9.49795 11.547 11.182 9.15199 14.52 9.15199C17.203 9.15199 18.968 11.095 18.968 13.18C18.968 15.94 17.435 18 15.177 18C14.418 18 13.704 17.59 13.461 17.124C13.461 17.124 13.052 18.744 12.967 19.057C12.819 19.591 12.535 20.125 12.272 20.545C12.884 20.72 13.53 20.815 14.2 20.815C18.066 20.815 21.2 17.677 21.2 13.807C21.2 9.93699 18.066 6.79999 14.2 6.79999Z" fill="white"/>
</svg>
