<svg width="28" height="28" viewBox="0 0 28 28" fill="none" xmlns="http://www.w3.org/2000/svg">
<path d="M14 28C21.732 28 28 21.732 28 14C28 6.26801 21.732 0 14 0C6.26801 0 0 6.26801 0 14C0 21.732 6.26801 28 14 28Z" fill="#0084FF"/>
<path fill-rule="evenodd" clip-rule="evenodd" d="M14.848 15.928L13.077 14.028L9.61995 15.928L13.422 11.867L15.237 13.767L18.651 11.867L14.848 15.928ZM14.157 7.20001C10.315 7.20001 7.19995 10.102 7.19995 13.681C7.19995 15.721 8.21195 17.541 9.79295 18.729V21.2L12.161 19.892C12.793 20.068 13.463 20.163 14.157 20.163C17.999 20.163 21.114 17.261 21.114 13.681C21.114 10.101 17.999 7.20001 14.157 7.20001Z" fill="white"/>
</svg>
