 <svg
      width="32"
      height="33"
      viewBox="0 0 32 33"
      fill="none"
      xmlns="http://www.w3.org/2000/svg"
    >
      <path d="M28.8002 3.8667H3.2002V29.4667H28.8002V3.8667Z" fill="#1093D5" />
      <path
        d="M10.7408 9.09636C10.1417 9.09572 9.7155 9.32612 9.45246 9.8458C9.0851 9.29668 8.77534 9.09316 8.12766 9.09188C7.54846 9.09124 7.1235 9.25572 6.81054 9.77092V9.58596C6.8099 9.3114 6.58718 9.08932 6.31326 9.08868L5.5523 9.0874L5.5459 13.4605C5.54654 13.7351 5.76862 13.9578 6.04254 13.9572L6.80286 13.9585L6.80862 10.8737C6.81246 10.4538 7.15486 10.1165 7.57342 10.1197C7.99262 10.1236 8.3299 10.4666 8.32606 10.8858L8.32222 13.4644C8.32222 13.7389 8.5443 13.961 8.81822 13.961L9.57982 13.9623L9.5843 10.9012C9.5907 10.473 9.94142 10.1313 10.3689 10.1377C10.7888 10.1434 11.1273 10.4833 11.1318 10.9037L11.128 13.4689C11.1286 13.7434 11.3513 13.9661 11.6253 13.9655L12.3593 13.9668L12.3645 10.6785C12.3664 9.79204 11.6995 9.09764 10.7408 9.09636Z"
        fill="white"
      />
      <path
        d="M21.3498 9.39339C20.9332 9.21547 20.4865 9.11947 20.0333 9.10987C17.9668 9.10667 17.5898 10.2004 17.5879 11.5386C17.586 12.8781 17.9591 13.9719 20.0263 13.9751C20.5012 13.9687 20.9735 13.9073 21.4343 13.7921C21.4849 13.7889 21.5246 13.7485 21.5284 13.698C21.5284 13.6609 21.4356 12.9505 21.4356 12.9505C21.4337 12.9005 21.394 12.8596 21.3434 12.8577C20.914 12.9722 20.4717 13.0343 20.0276 13.0426C18.9466 13.0407 18.713 12.3943 18.7143 11.5412C18.7156 10.6913 18.8583 10.0449 20.0327 10.0468C20.6887 10.0481 21.3946 10.3303 21.4407 10.3303C21.49 10.3335 21.5316 10.2957 21.5348 10.2465C21.5348 10.2426 21.5348 10.2388 21.5348 10.2349C21.5348 10.1972 21.442 9.48555 21.442 9.48555C21.4273 9.44203 21.3934 9.40811 21.3498 9.39339Z"
        fill="white"
      />
      <path
        d="M25.9574 9.11975L25.3763 9.11911L25.3756 9.54215C25.0723 9.25031 24.5897 9.11783 24.1513 9.11719C22.7427 9.11527 21.8019 9.86215 21.7993 11.546C21.7968 13.2305 22.735 13.9805 24.1436 13.9825C24.8323 13.9837 25.2105 13.7175 25.3724 13.5581C25.4064 13.8052 25.6169 13.9889 25.8659 13.9889L26.4476 13.9895L26.454 9.61127C26.4515 9.33863 26.23 9.11911 25.9574 9.11975ZM24.1443 13.0493C23.2067 13.0474 22.9238 12.4842 22.9251 11.5479C22.9264 10.6109 23.2112 10.0516 24.1488 10.0528C25.0864 10.0541 25.3699 10.6167 25.3686 11.5511C25.3673 12.4861 25.0838 13.0506 24.1443 13.0493Z"
        fill="white"
      />
      <path
        d="M14.9807 9.10303C13.5714 9.10111 12.63 9.84735 12.6274 11.5318C12.6249 13.2163 13.5638 13.967 14.973 13.9689C16.3823 13.9708 17.3199 13.2246 17.3225 11.5388C17.325 9.85311 16.3887 9.10495 14.9807 9.10303ZM14.975 13.0352C14.0335 13.0339 13.7545 12.4707 13.7558 11.5337C13.757 10.5974 14.0374 10.0374 14.9794 10.0387C15.917 10.0399 16.1986 10.6025 16.1967 11.5369C16.1954 12.472 15.9132 13.0364 14.975 13.0352Z"
        fill="white"
      />
      <path
        d="M28.8002 29.4664H3.2002V18.1538H28.8002V29.4664Z"
        fill="#00B14F"
      />
      <path
        d="M8.55931 23.7419C8.55931 24.9105 9.44123 25.8059 10.5804 25.8059C11.6774 25.8059 12.2291 25.0961 12.2291 24.3147V24.035H10.6303V24.4651H11.7913C11.7983 24.8881 11.4111 25.3829 10.5798 25.3829C9.66202 25.3829 9.02459 24.7019 9.02459 23.7413C9.02459 22.8165 9.71259 22.1214 10.6591 22.1214C11.2755 22.1214 11.7631 22.2718 12.2143 22.5873L12.2431 22.5656V22.1643C11.9065 21.9275 11.3331 21.6984 10.6444 21.6984C9.47707 21.699 8.55931 22.6027 8.55931 23.7419ZM7.89307 23.7419C7.89307 25.2901 9.03995 26.444 10.5811 26.444C11.9859 26.444 12.846 25.5621 12.846 24.1361V23.4053H10.631V23.8213H12.4441V24.2085C12.4441 25.3265 11.7491 26.0216 10.5804 26.0216C9.29723 26.0216 8.34427 25.0398 8.34427 23.7425C8.34427 22.4811 9.34779 21.4846 10.6451 21.4846C11.2614 21.4846 11.8207 21.635 12.2438 21.9288V21.5057C11.8355 21.212 11.2979 21.0616 10.6451 21.0616C9.08987 21.0616 7.89307 22.2443 7.89307 23.7419ZM13.7561 24.1073V26.3224H14.1791V24.115C14.1791 23.6203 14.5017 23.2689 14.9817 23.2689C15.1251 23.2689 15.2543 23.3048 15.39 23.3624C15.4476 23.2261 15.5046 23.1115 15.5763 23.004C15.4259 22.9035 15.2038 22.8389 14.9887 22.8389C14.2649 22.8389 13.7561 23.3624 13.7561 24.1073ZM13.1321 26.3224H13.5551V24.1073C13.5551 23.2331 14.1427 22.6379 14.9958 22.6379C15.2825 22.6379 15.5763 22.7313 15.7055 22.8101C15.7843 22.7166 15.8707 22.6168 15.9852 22.5233C15.7203 22.3371 15.3619 22.2296 14.9747 22.2296C13.8495 22.2296 13.1327 22.9893 13.1327 24.1144V26.3224H13.1321ZM19.7625 23.8424V24.4657C20.0134 24.1291 20.2284 23.8347 20.4294 23.5915C20.9382 22.9681 21.383 22.6238 22.071 22.6238C23.0028 22.6238 23.6838 23.3265 23.6838 24.3153C23.6838 25.283 23.0169 26.0216 22.0998 26.0216C21.3542 26.0216 20.7091 25.5128 20.5587 24.8171L20.2579 25.2254C20.4947 25.9064 21.1897 26.444 22.0927 26.444C23.2537 26.444 24.1068 25.5121 24.1068 24.3153C24.1068 23.1038 23.2467 22.1937 22.071 22.1937C20.8518 22.1937 20.2931 23.1045 19.7625 23.8424ZM21.0745 24.1579H21.0604L20.7308 24.6097C20.7884 25.1256 21.3113 25.8142 22.0998 25.8142C22.9023 25.8142 23.4835 25.1621 23.4835 24.3089C23.4835 23.4558 22.8883 22.8254 22.0716 22.8254C21.2761 22.8254 20.8172 23.4059 20.4947 23.836C20.3372 24.044 20.0646 24.3806 19.7638 24.8037V25.4917C20.0435 25.0757 20.423 24.5886 20.7027 24.2513C21.1756 23.6849 21.4623 23.2549 22.0646 23.2549C22.6521 23.2549 23.054 23.7067 23.054 24.3083C23.054 24.9317 22.6739 25.3905 22.1004 25.3905C21.4982 25.3905 21.0751 24.8389 21.0751 24.2219V24.1579H21.0745ZM20.6515 20.6885V22.4734C20.7807 22.3729 20.9241 22.2513 21.0745 22.1937V20.6885H20.6515ZM20.0204 23.1256C20.1497 22.9605 20.2931 22.7813 20.4435 22.6309V20.6885H20.0204V23.1256ZM18.3001 25.1685L18.2931 25.1614C18.1139 25.3048 17.8201 25.3905 17.5404 25.3905C16.967 25.3905 16.5369 24.9605 16.5369 24.3224C16.5369 23.7131 16.9599 23.2472 17.5263 23.2472C18.1356 23.2472 18.5081 23.6913 18.5081 24.2865V26.3224H18.9311V24.2654C18.9311 23.4341 18.3507 22.8248 17.5334 22.8248C16.7231 22.8248 16.0998 23.4341 16.0998 24.323C16.0998 25.2049 16.7161 25.8353 17.5334 25.8142C17.8419 25.8072 18.1567 25.6926 18.3001 25.5921V25.1685ZM15.4617 24.3153C15.4617 25.5627 16.3436 26.444 17.5334 26.444C17.7983 26.444 18.1068 26.3653 18.3001 26.2149V25.7918C18.1708 25.8993 17.8559 26.0209 17.5334 26.0209C16.5587 26.0209 15.8988 25.3329 15.8988 24.3147C15.8988 23.347 16.6015 22.6232 17.5334 22.6232C18.4582 22.6232 19.1321 23.3041 19.1321 24.2577V26.3217H19.5622V24.2507C19.5622 23.0609 18.7238 22.1867 17.534 22.1867C16.3647 22.1867 15.4617 23.1115 15.4617 24.3153Z"
        fill="white"
      />
    </svg>