  <svg
      width="68"
      height="33"
      viewBox="0 0 68 33"
      fill="none"
      xmlns="http://www.w3.org/2000/svg"
    >
      <path
        d="M3.27822 10.3091H1.54327C0.77827 10.3091 0.460938 9.70435 0.460938 9.11473C0.460938 8.5081 0.858548 7.91943 1.54327 7.91943H7.39883C8.0826 7.91943 8.48116 8.5081 8.48116 9.11473C8.48116 9.70435 8.16288 10.3091 7.39883 10.3091H5.66671V19.0022C5.66671 19.8668 5.15766 20.3506 4.47199 20.3506C3.78633 20.3506 3.27822 19.8668 3.27822 19.0022V10.3091Z"
        fill="#1AA7FF"
      />
      <path
        d="M10.063 9.2662C10.063 8.40729 10.6117 7.92822 11.3493 7.92822C12.0869 7.92822 12.6357 8.40729 12.6357 9.2662V19.0138C12.6357 19.8709 12.0869 20.3509 11.3493 20.3509C10.6117 20.3509 10.063 19.8709 10.063 19.0138V9.2662Z"
        fill="#1AA7FF"
      />
      <path
        d="M14.1055 9.19599C14.1055 8.49393 14.6192 7.92794 15.3918 7.92794C16.1294 7.92794 16.6772 8.407 16.6772 9.19599V12.9038L20.897 8.407C21.0196 8.26149 21.1716 8.14358 21.343 8.06102C21.5144 7.97845 21.7013 7.9331 21.8915 7.92794C22.0561 7.92493 22.2196 7.95457 22.3727 8.01514C22.5258 8.07571 22.6653 8.16601 22.7833 8.28082C22.9013 8.39564 22.9955 8.5327 23.0602 8.6841C23.125 8.8355 23.1592 8.99824 23.1608 9.16292C23.1608 9.60797 22.886 9.96987 22.3212 10.535L19.0789 13.7268L23.0456 17.8636C23.4564 18.2746 23.7652 18.6526 23.7652 19.1657C23.7652 19.9726 23.1296 20.3496 22.427 20.3496C21.9302 20.3496 21.6044 20.0596 21.1236 19.5446L16.6847 14.7388V19.1156C16.6847 19.7855 16.17 20.3496 15.3994 20.3496C14.6608 20.3496 14.113 19.8706 14.113 19.1156L14.1055 9.19599Z"
        fill="#1AA7FF"
      />
      <path
        d="M25.1299 9.26867C25.1299 8.4107 25.6795 7.93164 26.4162 7.93164C27.1529 7.93164 27.7026 8.4107 27.7026 9.26867V19.0106C27.7026 19.8667 27.1529 20.3467 26.4162 20.3467C25.6795 20.3467 25.1299 19.8667 25.1299 19.0106V9.26867Z"
        fill="#1AA7FF"
      />
      <path
        d="M11.2284 6.26221C10.9207 6.26245 10.616 6.20202 10.3316 6.08435C10.0473 5.96669 9.78892 5.7941 9.5713 5.57646C9.35368 5.35883 9.18108 5.10041 9.06336 4.81598C8.94563 4.53155 8.8851 4.2267 8.88523 3.91885C8.88558 3.70158 8.91576 3.48537 8.97495 3.27632H13.479C13.5796 3.62508 13.5977 3.99249 13.5317 4.34944C13.4658 4.70639 13.3176 5.04307 13.0991 5.33281C12.8805 5.62254 12.5975 5.85737 12.2725 6.01869C11.9474 6.18001 11.5893 6.26338 11.2265 6.26221H11.2284ZM11.2265 0.666504C10.6213 0.666504 10.0298 0.846032 9.52656 1.18239C9.02336 1.51875 8.63116 1.99683 8.39952 2.55619C8.16789 3.11554 8.10724 3.73106 8.22523 4.3249C8.34323 4.91874 8.63457 5.46425 9.06242 5.89244C9.49028 6.32063 10.0354 6.61228 10.6289 6.73052C11.2225 6.84875 11.8377 6.78826 12.3969 6.55669C12.956 6.32512 13.434 5.93287 13.7703 5.42953C14.1067 4.9262 14.2863 4.33439 14.2865 3.72893C14.2867 3.32677 14.2078 2.92851 14.0541 2.55691C13.9004 2.18531 13.675 1.84766 13.3909 1.56325C13.1067 1.27884 12.7693 1.05325 12.3979 0.899381C12.0265 0.745513 11.6285 0.66638 11.2265 0.666504Z"
        fill="#1AA7FF"
      />
      <path
        d="M26.3037 6.2622C25.9962 6.2622 25.6917 6.20159 25.4075 6.08381C25.1234 5.96603 24.8653 5.79341 24.6479 5.57579C24.4304 5.35818 24.258 5.09984 24.1404 4.81554C24.0228 4.53124 23.9623 4.22654 23.9624 3.91885C23.9625 3.70162 23.9923 3.48541 24.0512 3.27632H28.5543C28.616 3.48495 28.6478 3.70128 28.6488 3.91885C28.6488 4.22667 28.5882 4.53146 28.4704 4.81583C28.3526 5.1002 28.18 5.35857 27.9624 5.57618C27.7448 5.7938 27.4865 5.96639 27.2022 6.0841C26.918 6.20181 26.6133 6.26233 26.3056 6.2622H26.3037ZM26.3056 0.666504C25.7004 0.666504 25.1089 0.846032 24.6057 1.18239C24.1025 1.51875 23.7103 1.99683 23.4786 2.55619C23.247 3.11554 23.1863 3.73106 23.3043 4.3249C23.4223 4.91874 23.7137 5.46425 24.1415 5.89244C24.5694 6.32063 25.1145 6.61228 25.7081 6.73052C26.3016 6.84875 26.9168 6.78826 27.476 6.55669C28.0351 6.32512 28.5131 5.93287 28.8495 5.42953C29.1858 4.9262 29.3654 4.33439 29.3656 3.72893C29.3656 2.91688 29.0433 2.13809 28.4694 1.5638C27.8956 0.989513 27.1173 0.666754 26.3056 0.666504Z"
        fill="#1AA7FF"
      />
      <path
        d="M30.4963 9.65551V19.9956C30.4991 20.0542 30.4899 20.1127 30.4694 20.1677C30.4488 20.2226 30.4174 20.2728 30.3769 20.3153C30.3364 20.3577 30.2878 20.3915 30.2339 20.4146C30.1799 20.4376 30.1219 20.4495 30.0633 20.4495C30.0047 20.4495 29.9466 20.4376 29.8927 20.4146C29.8388 20.3915 29.7902 20.3577 29.7497 20.3153C29.7092 20.2728 29.6778 20.2226 29.6572 20.1677C29.6367 20.1127 29.6275 20.0542 29.6303 19.9956V8.41013C29.6024 8.32225 29.6031 8.2278 29.6323 8.14035C29.6615 8.0529 29.7176 7.97698 29.7927 7.9235C29.8891 7.85912 30.0066 7.83439 30.1208 7.85445C30.2349 7.87452 30.337 7.93783 30.4057 8.03122L38.0557 18.6425V8.35627C38.0557 8.23899 38.1022 8.12651 38.1851 8.04358C38.268 7.96064 38.3804 7.91406 38.4977 7.91406C38.6149 7.91406 38.7273 7.96064 38.8102 8.04358C38.8931 8.12651 38.9397 8.23899 38.9397 8.35627V19.9956C38.9369 20.1129 38.8879 20.2243 38.8033 20.3056C38.7187 20.3869 38.6055 20.4313 38.4882 20.4293C38.4223 20.4309 38.357 20.4171 38.2975 20.3888C38.2379 20.3606 38.1858 20.3188 38.1454 20.2668C38.1274 20.2488 38.0915 20.2299 38.0736 20.194L30.4963 9.65551Z"
        fill="#1AA7FF"
      />
      <path
        d="M47.0722 7.87695C50.4722 7.87695 53.146 10.688 53.1639 14.153C53.146 17.6179 50.4732 20.429 47.0722 20.429C43.6354 20.429 40.9447 17.6179 40.9258 14.153C40.9447 10.688 43.6354 7.87695 47.0722 7.87695ZM47.0722 19.5625C49.8744 19.5625 52.2355 17.1757 52.2544 14.1577C52.2365 11.0991 49.8725 8.7661 47.0722 8.7661C44.1813 8.7661 41.8173 11.0991 41.8173 14.1577C41.8173 17.1757 44.1813 19.5625 47.0722 19.5625Z"
        fill="#1AA7FF"
      />
      <path
        d="M54.7927 8.11498L57.1698 18.8519L60.634 8.90586C60.702 8.74334 60.8229 8.63468 60.9476 8.63468C61.0251 8.64045 61.099 8.6694 61.1598 8.71776C61.2206 8.76613 61.2655 8.83166 61.2885 8.90586L64.9388 18.8519L67.111 8.11498C67.1932 7.8986 67.3708 7.78994 67.5615 7.8986C67.7259 7.98837 67.8071 8.25955 67.7259 8.47593L65.2524 20.1331C65.2338 20.1999 65.1992 20.2611 65.1517 20.3115C65.1041 20.3619 65.045 20.3999 64.9794 20.4223H64.9114C64.8805 20.4222 64.8499 20.4157 64.8216 20.4032C64.7933 20.3907 64.7679 20.3724 64.7471 20.3495C64.7249 20.3291 64.7067 20.3047 64.6933 20.2777C64.671 20.2436 64.6527 20.2072 64.6385 20.1691C64.6406 20.15 64.6355 20.1308 64.6243 20.1152L60.9608 10.1323L57.4834 20.1152C57.4836 20.1472 57.474 20.1785 57.456 20.205C57.4431 20.2517 57.4198 20.295 57.388 20.3316C57.3738 20.3316 57.3606 20.3495 57.3606 20.3495C57.3356 20.3737 57.306 20.3927 57.2736 20.4052C57.2411 20.4177 57.2065 20.4235 57.1717 20.4223C57.133 20.4211 57.0948 20.4121 57.0596 20.3959C57.0244 20.3796 56.9928 20.3565 56.9668 20.3278L56.9394 20.2919L56.9262 20.2739C56.8808 20.21 56.8525 20.1355 56.844 20.0576L54.192 8.47593C54.1108 8.25955 54.192 7.98837 54.3563 7.8986C54.5197 7.78994 54.7247 7.8986 54.7927 8.11498Z"
        fill="#1AA7FF"
      />
      <path
        d="M63.5224 23.708H4.47761C2.00469 23.708 0 25.7135 0 28.1873C0 30.6612 2.00469 32.6666 4.47761 32.6666H63.5224C65.9953 32.6666 68 30.6612 68 28.1873C68 25.7135 65.9953 23.708 63.5224 23.708Z"
        fill="#1AA7FF"
      />
      <path
        d="M4.06113 29.2826H5.04997C5.04731 29.3723 5.06505 29.4615 5.10187 29.5433C5.13868 29.6252 5.19359 29.6976 5.26247 29.7551C5.40158 29.8701 5.57793 29.9302 5.7583 29.9242C5.84465 29.9247 5.93038 29.9097 6.01141 29.8798C6.09173 29.8495 6.16524 29.8036 6.22769 29.7447C6.29109 29.6859 6.3413 29.6143 6.375 29.5346C6.4087 29.455 6.42513 29.3691 6.42319 29.2826C6.42849 29.1243 6.38098 28.9687 6.28814 28.8404C6.19476 28.7316 6.07999 28.6431 5.95097 28.5806C5.815 28.5181 5.67526 28.4641 5.53258 28.419C5.37191 28.3696 5.21423 28.3109 5.06036 28.2432C4.9065 28.17 4.76653 28.0705 4.64669 27.9494C4.52097 27.8192 4.42184 27.6658 4.35486 27.4977C4.32009 27.4131 4.29321 27.3255 4.27458 27.236C4.25584 27.1478 4.24666 27.0578 4.24719 26.9676C4.24242 26.7728 4.2794 26.5793 4.35564 26.4C4.43188 26.2207 4.54561 26.0599 4.68919 25.9282C4.9743 25.6541 5.35637 25.5043 5.75169 25.5115C5.94566 25.5103 6.13795 25.5475 6.31742 25.6212C6.49689 25.6948 6.65996 25.8033 6.79719 25.9405C6.93985 26.0696 7.05358 26.2274 7.1309 26.4036C7.20822 26.5799 7.24738 26.7705 7.2458 26.9629H6.27114C6.27186 26.8911 6.25685 26.8201 6.22715 26.7548C6.19745 26.6895 6.15379 26.6315 6.09925 26.5849C5.99031 26.4836 5.84658 26.4281 5.69786 26.43C5.62964 26.4276 5.56173 26.4401 5.4988 26.4665C5.43586 26.4929 5.3794 26.5327 5.3333 26.583C5.23956 26.6894 5.19021 26.8278 5.19541 26.9695C5.193 27.0921 5.23606 27.2113 5.3163 27.304C5.41075 27.4117 5.58389 27.5062 5.83575 27.5875C6.13041 27.6883 6.30482 27.7512 6.35897 27.7764C6.52889 27.8483 6.68786 27.9437 6.83119 28.0599C7.00842 28.1972 7.15021 28.375 7.24469 28.5783C7.33917 28.7817 7.3836 29.0047 7.37425 29.2288C7.37766 29.4431 7.33604 29.6559 7.2521 29.8531C7.16815 30.0504 7.04374 30.2278 6.88691 30.374C6.733 30.5271 6.54999 30.6477 6.34868 30.7289C6.14738 30.81 5.93186 30.85 5.71486 30.8464C5.28648 30.8501 4.87327 30.688 4.56169 30.3938C4.40242 30.2562 4.2751 30.0855 4.18864 29.8936C4.10218 29.7016 4.05867 29.4931 4.06113 29.2826Z"
        fill="white"
      />
      <path
        d="M8.0249 30.7212V25.6187H9.3169L10.6863 29.523L12.0728 25.6187H13.3582V30.7212H12.4137V26.8905L11.0915 30.7212H10.2878L8.96557 26.8905V30.7212H8.0249Z"
        fill="white"
      />
      <path
        d="M13.8198 30.7212L15.9486 25.6187H16.6872L18.8367 30.7212H17.7978L17.2444 29.3983H15.4329L14.8663 30.7212H13.8198ZM15.7795 28.4799H16.8723L16.3264 26.934L15.7795 28.4799Z"
        fill="white"
      />
      <path
        d="M19.3564 30.7212V25.6187H20.8373C20.9809 25.6187 21.1112 25.6187 21.2283 25.6319C21.3316 25.6388 21.4342 25.6533 21.5353 25.6754C21.7663 25.7248 21.9821 25.8292 22.1643 25.9797C22.3466 26.1329 22.4933 26.3241 22.594 26.54C22.7004 26.7561 22.756 26.9936 22.7564 27.2345C22.7565 27.3321 22.7473 27.4296 22.7291 27.5255C22.7068 27.6305 22.6752 27.7333 22.6346 27.8326C22.5699 28.0199 22.4685 28.1925 22.3362 28.34C22.2154 28.4706 22.0733 28.5795 21.9159 28.6622C21.7605 28.7403 21.5962 28.7993 21.4267 28.838L22.8065 30.7278H21.6429L20.3037 28.7633V30.7212H19.3564ZM20.3009 28.0443H20.8175C20.951 28.0473 21.0844 28.0349 21.2151 28.0074C21.3478 27.9813 21.4713 27.9207 21.5731 27.8317C21.6486 27.7609 21.7083 27.675 21.7483 27.5796C21.7883 27.4842 21.8078 27.3814 21.8054 27.2779C21.8061 27.1676 21.7832 27.0584 21.7383 26.9576C21.6911 26.8562 21.619 26.7684 21.5287 26.7025C21.4295 26.63 21.3158 26.58 21.1953 26.556C21.1547 26.5494 21.1008 26.5438 21.0432 26.539C20.9856 26.5343 20.9091 26.5324 20.8241 26.5324H20.3037L20.3009 28.0443Z"
        fill="white"
      />
      <path
        d="M23.8829 30.7212V26.5362H22.9385V25.6187H25.7794V26.5362H24.8274V30.7249L23.8829 30.7212Z"
        fill="white"
      />
      <path
        d="M30.4897 30.7587V25.6279H31.4417V29.8365H33.0114V30.7587H30.4897Z"
        fill="white"
      />
      <path
        d="M35.9532 25.5296C36.5726 25.5285 37.1731 25.7424 37.6525 26.1348C38.1319 26.5271 38.4605 27.0737 38.5822 27.6813C38.7039 28.2889 38.6112 28.9199 38.3199 29.4668C38.0286 30.0137 37.5568 30.4425 36.9848 30.6803C36.4128 30.9181 35.7761 30.95 35.1833 30.7707C34.5904 30.5914 34.078 30.2119 33.7335 29.6969C33.389 29.1819 33.2337 28.5633 33.294 27.9466C33.3543 27.3299 33.6265 26.7532 34.0643 26.3148C34.3087 26.0615 34.6024 25.8612 34.9273 25.7261C35.2522 25.5911 35.6014 25.5242 35.9532 25.5296ZM35.9532 26.4518C35.7259 26.4482 35.5004 26.4917 35.2907 26.5795C35.081 26.6673 34.8918 26.7975 34.7349 26.962C34.5725 27.1223 34.4443 27.3137 34.3577 27.5248C34.2712 27.7359 34.2283 27.9623 34.2315 28.1904C34.2294 28.4204 34.2735 28.6484 34.3611 28.861C34.4487 29.0736 34.5781 29.2665 34.7415 29.4282C34.8968 29.5941 35.0844 29.7263 35.2929 29.8167C35.5013 29.9071 35.726 29.9537 35.9532 29.9537C36.1804 29.9537 36.4051 29.9071 36.6135 29.8167C36.8219 29.7263 37.0096 29.5941 37.1649 29.4282C37.3283 29.2665 37.4577 29.0736 37.5453 28.861C37.6329 28.6484 37.6769 28.4204 37.6749 28.1904C37.6793 27.9613 37.6369 27.7337 37.5504 27.5215C37.4638 27.3093 37.3349 27.117 37.1715 26.9564C37.014 26.793 36.8245 26.6639 36.6149 26.5771C36.4053 26.4903 36.18 26.4476 35.9532 26.4518Z"
        fill="white"
      />
      <path
        d="M44.322 27.134H43.1887C43.0363 26.9206 42.8327 26.749 42.5965 26.6351C42.3625 26.5157 42.1037 26.4529 41.841 26.4518C41.4046 26.45 40.9827 26.6079 40.6548 26.8959C40.4713 27.0585 40.324 27.2578 40.2222 27.4808C40.1185 27.7011 40.0637 27.9412 40.0616 28.1848C40.0605 28.4034 40.1036 28.62 40.1882 28.8216C40.2733 29.0286 40.397 29.2175 40.5528 29.3782C40.7235 29.5614 40.9307 29.7069 41.161 29.8053C41.3885 29.9037 41.6337 29.9545 41.8816 29.9545C42.1883 29.9519 42.4882 29.8639 42.7476 29.7004C43.0166 29.5413 43.2356 29.3098 43.3795 29.0323H41.2346V28.1422H44.5799V28.2547C44.5849 28.6076 44.5149 28.9576 44.3746 29.2814C44.2342 29.6053 44.0267 29.8956 43.7658 30.1331C43.2437 30.619 42.5567 30.8883 41.8436 30.8864C41.1306 30.8844 40.445 30.6115 39.9256 30.1227C39.6627 29.8819 39.4538 29.5881 39.3128 29.2605C39.1718 28.9329 39.1019 28.5791 39.1078 28.2225C39.102 27.866 39.1706 27.5121 39.3094 27.1836C39.4481 26.8551 39.6538 26.5592 39.9134 26.3148C40.1648 26.0615 40.4646 25.8614 40.795 25.7265C41.1253 25.5916 41.4795 25.5246 41.8363 25.5296C42.3634 25.5277 42.88 25.6773 43.3247 25.9605C43.7765 26.2319 44.1269 26.6442 44.322 27.134Z"
        fill="white"
      />
      <path
        d="M45.2031 30.7587V25.6279H46.1561V30.7587H45.2031Z"
        fill="white"
      />
      <path
        d="M46.7726 29.3138H47.7652C47.7632 29.4035 47.7813 29.4925 47.8183 29.5743C47.8552 29.656 47.91 29.7285 47.9786 29.7863C48.1189 29.9012 48.2961 29.9613 48.4773 29.9554C48.564 29.9564 48.6501 29.9413 48.7314 29.911C48.8119 29.8805 48.8857 29.8346 48.9486 29.7759C49.0124 29.7167 49.0629 29.6447 49.0967 29.5645C49.1306 29.4844 49.1471 29.398 49.145 29.311C49.1503 29.1519 49.1024 28.9957 49.009 28.8669C48.9156 28.7575 48.8004 28.6686 48.6709 28.6061C48.5344 28.5428 48.394 28.4883 48.2506 28.4426C48.09 28.3931 47.9323 28.3345 47.7784 28.2669C47.6239 28.1933 47.4834 28.0936 47.3629 27.972C47.2367 27.841 47.1373 27.6866 47.0701 27.5175C47.0351 27.4326 47.008 27.3447 46.9889 27.2549C46.9706 27.1659 46.9615 27.0754 46.9615 26.9846C46.9574 26.7898 46.9949 26.5963 47.0715 26.4171C47.148 26.2379 47.2618 26.077 47.4054 25.9452C47.6922 25.6701 48.0762 25.5197 48.4735 25.5266C48.6684 25.5254 48.8615 25.5629 49.0418 25.6368C49.222 25.7108 49.3859 25.8198 49.5237 25.9575C49.6664 26.088 49.7798 26.2473 49.8565 26.4248C49.9331 26.6023 49.9713 26.7941 49.9686 26.9875H48.993C48.9933 26.9156 48.9779 26.8445 48.9479 26.7793C48.9178 26.714 48.8739 26.656 48.8192 26.6095C48.7097 26.5077 48.5653 26.4519 48.4159 26.4536C48.3474 26.4513 48.2792 26.464 48.2161 26.4908C48.153 26.5175 48.0964 26.5577 48.0504 26.6086C47.9562 26.7151 47.9065 26.8538 47.9116 26.996C47.9095 27.1193 47.9529 27.239 48.0334 27.3323C48.1279 27.441 48.3026 27.5364 48.5557 27.6205C48.851 27.7213 49.026 27.7843 49.0808 27.8095C49.2506 27.8816 49.4096 27.977 49.553 28.093C49.7295 28.2305 49.8708 28.408 49.9652 28.6109C50.0597 28.8138 50.1045 29.0363 50.0961 29.2599C50.0996 29.4751 50.0579 29.6886 49.9738 29.8867C49.8897 30.0848 49.765 30.263 49.6078 30.4099C49.4528 30.5631 49.2688 30.6839 49.0666 30.765C48.8644 30.8461 48.6479 30.886 48.4301 30.8823C47.9993 30.8865 47.5837 30.7236 47.2703 30.4278C47.1116 30.2894 46.9849 30.118 46.8989 29.9256C46.813 29.7333 46.7699 29.5245 46.7726 29.3138Z"
        fill="white"
      />
      <path
        d="M51.277 30.7587V26.5502H50.3325V25.6279H53.1866V26.5502H52.2261V30.7587H51.277Z"
        fill="white"
      />
      <path
        d="M53.6699 30.7587V25.6279H54.6229V30.7587H53.6699Z"
        fill="white"
      />
      <path
        d="M59.2864 29.3614H60.3877C60.1939 29.8258 59.8567 30.2159 59.4253 30.4745C59.0018 30.7435 58.5102 30.8858 58.0086 30.8846C57.6574 30.8892 57.309 30.8209 56.9855 30.6839C56.662 30.547 56.3704 30.3444 56.1291 30.089C55.878 29.8412 55.6797 29.5451 55.5461 29.2185C55.4125 28.8919 55.3465 28.5417 55.3519 28.1888C55.3477 27.8399 55.4146 27.4938 55.5485 27.1717C55.6825 26.8495 55.8807 26.558 56.131 26.3151C56.3697 26.0639 56.6574 25.8646 56.9764 25.7295C57.2953 25.5944 57.6387 25.5265 57.985 25.5299C58.5029 25.5281 59.0106 25.6747 59.4479 25.9523C59.8855 26.2183 60.2259 26.6182 60.4188 27.0927H59.3337C59.1701 26.8937 58.9647 26.7331 58.7321 26.6224C58.4995 26.5117 58.2454 26.4535 57.9878 26.4521C57.7637 26.4499 57.5416 26.4954 57.3363 26.5854C57.131 26.6755 56.9471 26.8082 56.7969 26.9746C56.6351 27.1393 56.5076 27.3343 56.4217 27.5486C56.3357 27.7628 56.2931 27.992 56.2963 28.2228C56.2949 28.4489 56.3389 28.673 56.4257 28.8817C56.5125 29.0905 56.6403 29.2796 56.8016 29.438C56.9528 29.6029 57.1367 29.7344 57.3416 29.8241C57.5466 29.9137 57.7679 29.9596 57.9916 29.9586C58.2304 29.9591 58.4664 29.9072 58.6829 29.8065C58.9113 29.6992 59.1164 29.5479 59.2864 29.3614Z"
        fill="white"
      />
      <path
        d="M60.6525 29.3138H61.646C61.6438 29.4035 61.6619 29.4926 61.6988 29.5744C61.7358 29.6562 61.7907 29.7286 61.8595 29.7863C61.9994 29.9012 62.1763 29.9613 62.3572 29.9554C62.4442 29.9563 62.5306 29.9413 62.6122 29.911C62.6924 29.8806 62.7659 29.8347 62.8285 29.7759C62.8924 29.7168 62.943 29.6448 62.9771 29.5646C63.0111 29.4845 63.0277 29.398 63.0259 29.311C63.0311 29.1519 62.9832 28.9957 62.8899 28.8669C62.7961 28.7574 62.6807 28.6685 62.5508 28.6061C62.4143 28.5427 62.274 28.4881 62.1305 28.4426C61.9698 28.3932 61.8122 28.3345 61.6583 28.2669C61.5037 28.1935 61.3631 28.0938 61.2427 27.9721C61.1166 27.841 61.0171 27.6866 60.95 27.5176C60.9147 27.4326 60.8872 27.3447 60.8678 27.2549C60.8499 27.1659 60.841 27.0754 60.8414 26.9846C60.8371 26.7898 60.8745 26.5962 60.9511 26.417C61.0276 26.2377 61.1416 26.0769 61.2852 25.9452C61.5717 25.67 61.9554 25.5195 62.3525 25.5266C62.5475 25.5253 62.7408 25.5627 62.9212 25.6367C63.1017 25.7106 63.2656 25.8197 63.4036 25.9575C63.5468 26.0878 63.6608 26.2469 63.7381 26.4244C63.8155 26.602 63.8543 26.7938 63.8522 26.9875H62.8729C62.8733 26.9157 62.8581 26.8446 62.8283 26.7793C62.7984 26.714 62.7546 26.6561 62.7 26.6095C62.5906 26.5077 62.4462 26.4519 62.2967 26.4536C62.2281 26.4512 62.1597 26.4638 62.0964 26.4906C62.0331 26.5174 61.9764 26.5576 61.9303 26.6086C61.8361 26.7151 61.7864 26.8538 61.7915 26.996C61.7894 27.1193 61.8327 27.239 61.9133 27.3324C62.0077 27.441 62.1825 27.5364 62.4356 27.6205C62.7312 27.7216 62.9078 27.785 62.9607 27.8095C63.1305 27.8816 63.2894 27.977 63.4329 28.093C63.6093 28.2306 63.7504 28.4081 63.8447 28.611C63.939 28.8139 63.9836 29.0364 63.975 29.26C63.9786 29.4751 63.9371 29.6885 63.8532 29.8866C63.7692 30.0847 63.6447 30.2629 63.4877 30.4099C63.3328 30.5633 63.1488 30.6841 62.9466 30.7652C62.7443 30.8464 62.5278 30.8862 62.31 30.8823C61.8795 30.8863 61.4642 30.7234 61.1511 30.4278C60.9921 30.2895 60.8652 30.1182 60.779 29.9258C60.6929 29.7334 60.6497 29.5246 60.6525 29.3138Z"
        fill="white"
      />
    </svg>