<svg width="77" height="16" viewBox="0 0 77 16" fill="none" xmlns="http://www.w3.org/2000/svg">
<path d="M5.17822 1.33594V12H3.78662V1.33594H5.17822ZM8.60596 1.33594V2.49316H0.366211V1.33594H8.60596ZM11.4551 4.0752V12H10.0928V4.0752H11.4551ZM9.99023 1.97314C9.99023 1.75342 10.0562 1.56787 10.188 1.4165C10.3247 1.26514 10.5249 1.18945 10.7886 1.18945C11.0474 1.18945 11.2451 1.26514 11.3818 1.4165C11.5234 1.56787 11.5942 1.75342 11.5942 1.97314C11.5942 2.18311 11.5234 2.36377 11.3818 2.51514C11.2451 2.66162 11.0474 2.73486 10.7886 2.73486C10.5249 2.73486 10.3247 2.66162 10.188 2.51514C10.0562 2.36377 9.99023 2.18311 9.99023 1.97314ZM14.9927 0.75V12H13.6304V0.75H14.9927ZM19.834 4.0752L16.377 7.77393L14.4434 9.78076L14.3335 8.33789L15.7178 6.68262L18.1787 4.0752H19.834ZM18.5962 12L15.769 8.2207L16.4722 7.01221L20.1929 12H18.5962ZM22.7051 4.0752V12H21.3428V4.0752H22.7051ZM21.2402 1.97314C21.2402 1.75342 21.3062 1.56787 21.438 1.4165C21.5747 1.26514 21.7749 1.18945 22.0386 1.18945C22.2974 1.18945 22.4951 1.26514 22.6318 1.4165C22.7734 1.56787 22.8442 1.75342 22.8442 1.97314C22.8442 2.18311 22.7734 2.36377 22.6318 2.51514C22.4951 2.66162 22.2974 2.73486 22.0386 2.73486C21.7749 2.73486 21.5747 2.66162 21.438 2.51514C21.3062 2.36377 21.2402 2.18311 21.2402 1.97314ZM32.4536 1.33594V12H31.062V1.33594H32.4536ZM35.8813 1.33594V2.49316H27.6416V1.33594H35.8813ZM38.0566 5.32031V12H36.7017V4.0752H38.02L38.0566 5.32031ZM40.5322 4.03125L40.5249 5.29102C40.4126 5.2666 40.3052 5.25195 40.2026 5.24707C40.105 5.2373 39.9927 5.23242 39.8657 5.23242C39.5532 5.23242 39.2773 5.28125 39.0381 5.37891C38.7988 5.47656 38.5962 5.61328 38.4302 5.78906C38.2642 5.96484 38.1323 6.1748 38.0347 6.41895C37.9419 6.6582 37.8809 6.92188 37.8516 7.20996L37.4707 7.42969C37.4707 6.95117 37.5171 6.50195 37.6099 6.08203C37.7075 5.66211 37.8564 5.29102 38.0566 4.96875C38.2568 4.6416 38.5107 4.3877 38.8184 4.20703C39.1309 4.02148 39.502 3.92871 39.9316 3.92871C40.0293 3.92871 40.1416 3.94092 40.2686 3.96533C40.3955 3.98486 40.4834 4.00684 40.5322 4.03125ZM46.1646 10.645V6.56543C46.1646 6.25293 46.1011 5.98193 45.9741 5.75244C45.8521 5.51807 45.6665 5.3374 45.4175 5.21045C45.1685 5.0835 44.8608 5.02002 44.4946 5.02002C44.1528 5.02002 43.8525 5.07861 43.5938 5.1958C43.3398 5.31299 43.1396 5.4668 42.9932 5.65723C42.8516 5.84766 42.7808 6.05273 42.7808 6.27246H41.4258C41.4258 5.98926 41.499 5.7085 41.6455 5.43018C41.792 5.15186 42.002 4.90039 42.2754 4.67578C42.5537 4.44629 42.8857 4.26562 43.2715 4.13379C43.6621 3.99707 44.0967 3.92871 44.5752 3.92871C45.1514 3.92871 45.6592 4.02637 46.0986 4.22168C46.543 4.41699 46.8896 4.7124 47.1387 5.10791C47.3926 5.49854 47.5195 5.98926 47.5195 6.58008V10.2715C47.5195 10.5352 47.5415 10.8159 47.5854 11.1138C47.6343 11.4116 47.7051 11.668 47.7979 11.8828V12H46.3843C46.3159 11.8438 46.2622 11.6362 46.2231 11.3774C46.1841 11.1138 46.1646 10.8696 46.1646 10.645ZM46.3989 7.19531L46.4136 8.14746H45.0439C44.6582 8.14746 44.314 8.1792 44.0112 8.24268C43.7085 8.30127 43.4546 8.3916 43.2495 8.51367C43.0444 8.63574 42.8882 8.78955 42.7808 8.9751C42.6733 9.15576 42.6196 9.36816 42.6196 9.6123C42.6196 9.86133 42.6758 10.0884 42.7881 10.2935C42.9004 10.4985 43.0688 10.6621 43.2935 10.7842C43.5229 10.9014 43.8037 10.96 44.1357 10.96C44.5508 10.96 44.917 10.8721 45.2344 10.6963C45.5518 10.5205 45.8032 10.3057 45.9888 10.0518C46.1792 9.79785 46.2817 9.55127 46.2964 9.31201L46.875 9.96387C46.8408 10.1689 46.748 10.396 46.5967 10.645C46.4453 10.894 46.2427 11.1333 45.9888 11.3628C45.7397 11.5874 45.4419 11.7754 45.0952 11.9268C44.7534 12.0732 44.3677 12.1465 43.938 12.1465C43.4009 12.1465 42.9297 12.0415 42.5244 11.8315C42.124 11.6216 41.8115 11.3408 41.5869 10.9893C41.3672 10.6328 41.2573 10.2349 41.2573 9.79541C41.2573 9.37061 41.3403 8.99707 41.5063 8.6748C41.6724 8.34766 41.9116 8.07666 42.2241 7.86182C42.5366 7.64209 42.9126 7.47607 43.3521 7.36377C43.7915 7.25146 44.2822 7.19531 44.8242 7.19531H46.3989ZM54.646 10.4619V0.75H56.0083V12H54.7632L54.646 10.4619ZM49.314 8.12549V7.97168C49.314 7.36621 49.3872 6.81689 49.5337 6.32373C49.6851 5.82568 49.8975 5.39844 50.1709 5.04199C50.4492 4.68555 50.7788 4.41211 51.1597 4.22168C51.5454 4.02637 51.9751 3.92871 52.4487 3.92871C52.9468 3.92871 53.3813 4.0166 53.7524 4.19238C54.1284 4.36328 54.4458 4.61475 54.7046 4.94678C54.9683 5.27393 55.1758 5.66943 55.3271 6.1333C55.4785 6.59717 55.5835 7.12207 55.6421 7.70801V8.38184C55.5884 8.96289 55.4834 9.48535 55.3271 9.94922C55.1758 10.4131 54.9683 10.8086 54.7046 11.1357C54.4458 11.4629 54.1284 11.7144 53.7524 11.8901C53.3765 12.061 52.937 12.1465 52.4341 12.1465C51.9702 12.1465 51.5454 12.0464 51.1597 11.8462C50.7788 11.646 50.4492 11.3652 50.1709 11.0039C49.8975 10.6426 49.6851 10.2178 49.5337 9.72949C49.3872 9.23633 49.314 8.70166 49.314 8.12549ZM50.6763 7.97168V8.12549C50.6763 8.521 50.7153 8.89209 50.7935 9.23877C50.8765 9.58545 51.0034 9.89062 51.1743 10.1543C51.3452 10.418 51.5625 10.6255 51.8262 10.7769C52.0898 10.9233 52.4048 10.9966 52.771 10.9966C53.2202 10.9966 53.5889 10.9014 53.877 10.7109C54.1699 10.5205 54.4043 10.269 54.5801 9.95654C54.7559 9.64404 54.8926 9.30469 54.9902 8.93848V7.17334C54.9316 6.90479 54.8462 6.646 54.7339 6.39697C54.6265 6.14307 54.4849 5.91846 54.3091 5.72314C54.1382 5.52295 53.9258 5.36426 53.6719 5.24707C53.4229 5.12988 53.1274 5.07129 52.7856 5.07129C52.4146 5.07129 52.0947 5.14941 51.8262 5.30566C51.5625 5.45703 51.3452 5.66699 51.1743 5.93555C51.0034 6.19922 50.8765 6.50684 50.7935 6.8584C50.7153 7.20508 50.6763 7.57617 50.6763 7.97168ZM59.5898 4.0752V12H58.2275V4.0752H59.5898ZM58.125 1.97314C58.125 1.75342 58.1909 1.56787 58.3228 1.4165C58.4595 1.26514 58.6597 1.18945 58.9233 1.18945C59.1821 1.18945 59.3799 1.26514 59.5166 1.4165C59.6582 1.56787 59.729 1.75342 59.729 1.97314C59.729 2.18311 59.6582 2.36377 59.5166 2.51514C59.3799 2.66162 59.1821 2.73486 58.9233 2.73486C58.6597 2.73486 58.4595 2.66162 58.3228 2.51514C58.1909 2.36377 58.125 2.18311 58.125 1.97314ZM63.1201 5.76709V12H61.7651V4.0752H63.0469L63.1201 5.76709ZM62.7979 7.7373L62.2339 7.71533C62.2388 7.17334 62.3193 6.67285 62.4756 6.21387C62.6318 5.75 62.8516 5.34717 63.1348 5.00537C63.418 4.66357 63.7549 4.3999 64.1455 4.21436C64.541 4.02393 64.978 3.92871 65.4565 3.92871C65.8472 3.92871 66.1987 3.98242 66.5112 4.08984C66.8237 4.19238 67.0898 4.3584 67.3096 4.58789C67.5342 4.81738 67.7051 5.11523 67.8223 5.48145C67.9395 5.84277 67.998 6.28467 67.998 6.80713V12H66.6357V6.79248C66.6357 6.37744 66.5747 6.04541 66.4526 5.79639C66.3306 5.54248 66.1523 5.35938 65.918 5.24707C65.6836 5.12988 65.3955 5.07129 65.0537 5.07129C64.7168 5.07129 64.4092 5.14209 64.1309 5.28369C63.8574 5.42529 63.6206 5.62061 63.4204 5.86963C63.2251 6.11865 63.0713 6.4043 62.959 6.72656C62.8516 7.04395 62.7979 7.38086 62.7979 7.7373ZM75.1904 4.0752H76.4209V11.8315C76.4209 12.5298 76.2793 13.1255 75.9961 13.6187C75.7129 14.1118 75.3174 14.4854 74.8096 14.7393C74.3066 14.998 73.7256 15.1274 73.0664 15.1274C72.793 15.1274 72.4707 15.0835 72.0996 14.9956C71.7334 14.9126 71.3721 14.7686 71.0156 14.5635C70.6641 14.3633 70.3687 14.0923 70.1294 13.7505L70.8398 12.9448C71.1719 13.3452 71.5186 13.6235 71.8799 13.7798C72.2461 13.936 72.6074 14.0142 72.9639 14.0142C73.3936 14.0142 73.7646 13.9336 74.0771 13.7725C74.3896 13.6113 74.6313 13.3721 74.8022 13.0547C74.978 12.7422 75.0659 12.3564 75.0659 11.8975V5.81836L75.1904 4.0752ZM69.7339 8.12549V7.97168C69.7339 7.36621 69.8047 6.81689 69.9463 6.32373C70.0928 5.82568 70.3003 5.39844 70.5688 5.04199C70.8423 4.68555 71.1719 4.41211 71.5576 4.22168C71.9434 4.02637 72.3779 3.92871 72.8613 3.92871C73.3594 3.92871 73.7939 4.0166 74.165 4.19238C74.541 4.36328 74.8584 4.61475 75.1172 4.94678C75.3809 5.27393 75.5884 5.66943 75.7397 6.1333C75.8911 6.59717 75.9961 7.12207 76.0547 7.70801V8.38184C76.001 8.96289 75.896 9.48535 75.7397 9.94922C75.5884 10.4131 75.3809 10.8086 75.1172 11.1357C74.8584 11.4629 74.541 11.7144 74.165 11.8901C73.7891 12.061 73.3496 12.1465 72.8467 12.1465C72.373 12.1465 71.9434 12.0464 71.5576 11.8462C71.1768 11.646 70.8496 11.3652 70.5762 11.0039C70.3027 10.6426 70.0928 10.2178 69.9463 9.72949C69.8047 9.23633 69.7339 8.70166 69.7339 8.12549ZM71.0889 7.97168V8.12549C71.0889 8.521 71.1279 8.89209 71.2061 9.23877C71.2891 9.58545 71.4136 9.89062 71.5796 10.1543C71.7505 10.418 71.9678 10.6255 72.2314 10.7769C72.4951 10.9233 72.8101 10.9966 73.1763 10.9966C73.6255 10.9966 73.9966 10.9014 74.2896 10.7109C74.5825 10.5205 74.8145 10.269 74.9854 9.95654C75.1611 9.64404 75.2979 9.30469 75.3955 8.93848V7.17334C75.3418 6.90479 75.2588 6.646 75.1465 6.39697C75.0391 6.14307 74.8975 5.91846 74.7217 5.72314C74.5508 5.52295 74.3384 5.36426 74.0845 5.24707C73.8306 5.12988 73.5327 5.07129 73.1909 5.07129C72.8198 5.07129 72.5 5.14941 72.2314 5.30566C71.9678 5.45703 71.7505 5.66699 71.5796 5.93555C71.4136 6.19922 71.2891 6.50684 71.2061 6.8584C71.1279 7.20508 71.0889 7.57617 71.0889 7.97168Z" fill="#242424"/>
</svg>
