<svg
      width="32"
      height="32"
      viewBox="0 0 32 32"
      fill="none"
      xmlns="http://www.w3.org/2000/svg"
    >
      <path
        fill-rule="evenodd"
        clip-rule="evenodd"
        d="M5.5 10.5C5.5 4.70101 10.201 0 16 0C21.799 0 26.5 4.70101 26.5 10.5C26.5 16.299 21.799 21 16 21C10.201 21 5.5 16.299 5.5 10.5ZM16 1C10.7533 1 6.5 5.25329 6.5 10.5C6.5 15.7467 10.7533 20 16 20C21.2467 20 25.5 15.7467 25.5 10.5C25.5 5.25329 21.2467 1 16 1Z"
        fill="#052E5C"
      />
      <path
        fill-rule="evenodd"
        clip-rule="evenodd"
        d="M22.4646 7.70211C22.6599 7.89737 22.6599 8.21395 22.4646 8.40922L17.5757 13.2981C17.3805 13.4933 17.0639 13.4933 16.8686 13.2981C16.6734 13.1028 16.6734 12.7862 16.8686 12.591L21.7575 7.70211C21.9528 7.50685 22.2693 7.50685 22.4646 7.70211Z"
        fill="#0B74E5"
      />
      <path
        d="M18.5555 8.05523C18.5555 8.45411 18.2322 8.77746 17.8333 8.77746C17.4344 8.77746 17.1111 8.45411 17.1111 8.05523C17.1111 7.65636 17.4344 7.33301 17.8333 7.33301C18.2322 7.33301 18.5555 7.65636 18.5555 8.05523Z"
        fill="#0B74E5"
        stroke="#0B74E5"
      />
      <path
        d="M22.2223 12.9444C22.2223 13.3433 21.8989 13.6666 21.5001 13.6666C21.1012 13.6666 20.7778 13.3433 20.7778 12.9444C20.7778 12.5455 21.1012 12.2222 21.5001 12.2222C21.8989 12.2222 22.2223 12.5455 22.2223 12.9444Z"
        fill="#0B74E5"
        stroke="#0B74E5"
      />
      <path
        fill-rule="evenodd"
        clip-rule="evenodd"
        d="M10.8541 8.29152C10.5279 8.9072 10.3889 9.73394 10.3889 10.4997C10.3889 11.2654 10.528 12.0922 10.8543 12.7079C11.1684 13.3005 11.6306 13.6664 12.3334 13.6664C13.0361 13.6664 13.4984 13.3005 13.8125 12.7079C14.1387 12.0922 14.2778 11.2654 14.2778 10.4997C14.2778 9.73394 14.1389 8.9072 13.8126 8.29152C13.4986 7.69891 13.0364 7.33301 12.3334 7.33301C11.6303 7.33301 11.1681 7.69891 10.8541 8.29152ZM9.97048 7.82331C10.4128 6.98854 11.1728 6.33301 12.3334 6.33301C13.4939 6.33301 14.2539 6.98854 14.6962 7.82331C15.1263 8.63501 15.2778 9.64161 15.2778 10.4997C15.2778 11.3578 15.1262 12.3644 14.696 13.1761C14.2537 14.0108 13.4937 14.6664 12.3334 14.6664C11.173 14.6664 10.413 14.0108 9.97068 13.1761C9.54052 12.3644 9.38892 11.3578 9.38892 10.4997C9.38892 9.64161 9.54038 8.63501 9.97048 7.82331Z"
        fill="#0B74E5"
      />
      <path
        d="M4.39832 26.1432H2.66946V30.9234H1.71363V26.1432H0V25.3643H4.39832V26.1432Z"
        fill="#052E5C"
      />
      <path
        d="M7.16684 28.7815H6.09296V30.9234H5.12952V25.3643H7.07925C7.71901 25.3643 8.21279 25.5081 8.56059 25.7958C8.9084 26.0834 9.0823 26.4996 9.0823 27.0443C9.0823 27.4159 8.99217 27.7277 8.81192 27.9797C8.63421 28.2292 8.38542 28.4213 8.06554 28.5562L9.31078 30.8738V30.9234H8.27879L7.16684 28.7815ZM6.09296 28.0064H7.08306C7.40802 28.0064 7.66189 27.925 7.84467 27.7621C8.02746 27.5966 8.11886 27.3714 8.11886 27.0863C8.11886 26.7885 8.03381 26.5581 7.86372 26.3952C7.69616 26.2323 7.44483 26.1483 7.10972 26.1432H6.09296V28.0064Z"
        fill="#052E5C"
      />
      <path
        d="M13.0998 29.6293H10.952L10.5027 30.9236H9.5011L11.5956 25.3645H12.46L14.5583 30.9236H13.5529L13.0998 29.6293ZM11.2224 28.8504H12.8294L12.0259 26.5443L11.2224 28.8504ZM11.7098 24.9293L11.6832 24.3718C11.8685 24.3591 12.0018 24.3349 12.083 24.2993C12.1668 24.2636 12.2087 24.2013 12.2087 24.1122C12.2087 23.9289 12.0183 23.8373 11.6375 23.8373L11.6641 23.3677C12.0932 23.3677 12.4156 23.4339 12.6314 23.5662C12.8497 23.6986 12.9589 23.8768 12.9589 24.1007C12.9589 24.2535 12.9094 24.3795 12.8103 24.4787C12.7113 24.578 12.5704 24.6404 12.3877 24.6658V24.9293H11.7098Z"
        fill="#052E5C"
      />
      <path
        d="M21.3824 30.2019C21.1819 30.4641 20.9039 30.6626 20.5484 30.7975C20.193 30.9324 19.7894 30.9999 19.3375 30.9999C18.8729 30.9999 18.4616 30.8943 18.1037 30.683C17.7457 30.4717 17.469 30.1701 17.2735 29.7781C17.0806 29.3836 16.9803 28.9241 16.9727 28.3998V27.9645C16.9727 27.1246 17.1732 26.4691 17.5743 25.9982C17.9755 25.5248 18.5352 25.2881 19.2537 25.2881C19.8706 25.2881 20.3606 25.4408 20.7236 25.7462C21.0867 26.0517 21.305 26.492 21.3786 27.0673H20.4342C20.3276 26.3979 19.9404 26.0631 19.2727 26.0631C18.8412 26.0631 18.5124 26.2197 18.2865 26.5328C18.063 26.8433 17.9475 27.3002 17.9399 27.9034V28.3311C17.9399 28.9318 18.0656 29.3989 18.3169 29.7323C18.5708 30.0632 18.9224 30.2286 19.3718 30.2286C19.8643 30.2286 20.2146 30.1167 20.4228 29.8927V28.8045H19.2804V28.0714H21.3824V30.2019Z"
        fill="#052E5C"
      />
      <path
        d="M26.8658 28.2892C26.8658 28.8339 26.7719 29.3124 26.584 29.7248C26.3962 30.1346 26.1271 30.4502 25.7767 30.6716C25.4289 30.8905 25.0278 31 24.5734 31C24.124 31 23.7229 30.8905 23.37 30.6716C23.0197 30.4502 22.748 30.1358 22.5551 29.7286C22.3647 29.3213 22.2682 28.8517 22.2657 28.3197V28.0066C22.2657 27.4645 22.3609 26.9859 22.5513 26.571C22.7442 26.1561 23.0146 25.8392 23.3624 25.6203C23.7128 25.3989 24.1139 25.2882 24.5658 25.2882C25.0177 25.2882 25.4175 25.3976 25.7653 25.6165C26.1156 25.8329 26.386 26.146 26.5764 26.5558C26.7668 26.963 26.8633 27.4377 26.8658 27.9799V28.2892ZM25.9024 27.999C25.9024 27.383 25.7856 26.9108 25.5521 26.5825C25.321 26.2541 24.9923 26.09 24.5658 26.09C24.1494 26.09 23.8232 26.2541 23.5871 26.5825C23.3535 26.9083 23.2342 27.3703 23.2291 27.9685V28.2892C23.2291 28.9001 23.3472 29.3722 23.5833 29.7057C23.8219 30.0391 24.152 30.2058 24.5734 30.2058C24.9999 30.2058 25.3274 30.0429 25.5559 29.7171C25.7869 29.3913 25.9024 28.9153 25.9024 28.2892V27.999ZM24.8476 23.8755H25.9024L24.8476 25.0324H24.105L24.8476 23.8755Z"
        fill="#052E5C"
      />
      <path
        d="M28.789 28.8579V30.9234H27.8256V25.3643H29.9467C30.5661 25.3643 31.0574 25.526 31.4204 25.8492C31.786 26.1725 31.9688 26.6001 31.9688 27.1321C31.9688 27.6768 31.7898 28.1006 31.4318 28.4035C31.0764 28.7064 30.5775 28.8579 29.9352 28.8579H28.789ZM28.789 28.0828H29.9467C30.2894 28.0828 30.5509 28.0026 30.7311 27.8423C30.9114 27.6794 31.0015 27.4452 31.0015 27.1397C31.0015 26.8394 30.9101 26.6001 30.7273 26.4219C30.5445 26.2412 30.2932 26.1483 29.9733 26.1432H28.789V28.0828Z"
        fill="#052E5C"
      />
    </svg>