<svg width="28" height="28" viewBox="0 0 28 28" fill="none" xmlns="http://www.w3.org/2000/svg">
<path d="M14 28C21.732 28 28 21.732 28 14C28 6.26801 21.732 0 14 0C6.26801 0 0 6.26801 0 14C0 21.732 6.26801 28 14 28Z" fill="#55ACEE"/>
<path fill-rule="evenodd" clip-rule="evenodd" d="M20.413 8.64503C20.018 8.89803 19.11 9.26602 18.663 9.26602C18.153 8.73302 17.433 8.40002 16.635 8.40002C15.085 8.40002 13.829 9.65602 13.829 11.205C13.829 11.42 13.854 11.63 13.9 11.831C11.798 11.776 9.49995 10.723 8.11595 8.92002C7.26595 10.393 8.00095 12.03 8.96595 12.627C8.63595 12.652 8.02795 12.589 7.74195 12.31C7.72195 13.287 8.19195 14.582 9.90595 15.052C9.57595 15.229 8.99195 15.178 8.73795 15.141C8.82695 15.966 9.98195 17.044 11.246 17.044C10.796 17.565 9.10095 18.51 7.19995 18.209C8.49095 18.995 9.99595 19.45 11.589 19.45C16.116 19.45 19.631 15.781 19.442 11.256L19.44 11.24L19.442 11.205L19.44 11.165C19.852 10.882 20.405 10.384 20.8 9.72802C20.57 9.85402 19.884 10.106 19.244 10.169C19.654 9.94802 20.263 9.22203 20.413 8.64503Z" fill="white"/>
</svg>
