 <svg
      width="32"
      height="32"
      viewBox="0 0 32 32"
      fill="none"
      xmlns="http://www.w3.org/2000/svg"
    >
      <mask
        id="mask0_1_1998"
        style="mask-type: alpha"
        maskUnits="userSpaceOnUse"
        x="0"
        y="6"
        width="32"
        height="20"
      >
        <path
          d="M30.1818 6H1.81818C0.814027 6 0 6.81403 0 7.81818V24.1818C0 25.186 0.814027 26 1.81818 26H30.1818C31.186 26 32 25.186 32 24.1818V7.81818C32 6.81403 31.186 6 30.1818 6Z"
          fill="white"
        />
      </mask>
      <g mask="url(#mask0_1_1998)">
        <path opacity="0.01" d="M33.04 4H-1V27H33.04V4Z" fill="white" />
        <path
          fill-rule="evenodd"
          clip-rule="evenodd"
          d="M9.8116 10.6914L7.26655 17.2112L6.23703 11.6674C6.11637 11.0487 5.63944 10.6914 5.10955 10.6914H0.949103L0.891235 10.9694C1.74526 11.1576 2.7154 11.4604 3.30354 11.7847C3.66323 11.9825 3.76572 12.1558 3.88411 12.6261L5.83384 20.2702H8.41786L12.3794 10.6914H9.8116ZM13.4285 10.6914L11.4062 20.2702H13.8514L15.8726 10.6914H13.4285ZM27.4466 13.2789L28.1868 16.8761H26.1588L27.4466 13.2789ZM27.0873 10.6914C26.6187 10.6914 26.2234 10.9686 26.0472 11.3941L22.3792 20.2702H24.945L25.4556 18.8403H28.5911L28.8876 20.2702H31.149L29.1754 10.6914H27.0873ZM16.5398 13.6826C16.5224 15.0618 17.7528 15.8319 18.6794 16.2893C19.6318 16.7592 19.9514 17.0601 19.948 17.4803C19.9408 18.1227 19.1881 18.4064 18.4842 18.4175C17.2558 18.4371 16.5417 18.0813 15.9736 17.8126L15.5311 19.911C16.1007 20.1774 17.1555 20.4093 18.2497 20.4197C20.8175 20.4197 22.4972 19.1351 22.5063 17.1429C22.5165 14.6152 19.0565 14.4753 19.0799 13.3453C19.0883 13.0029 19.4109 12.6372 20.1178 12.5445C20.4676 12.4973 21.4332 12.4613 22.5282 12.9723L22.9579 10.9421C22.3693 10.7248 21.6125 10.5166 20.67 10.5166C18.2531 10.5166 16.5534 11.8184 16.5398 13.6826Z"
          fill="#1A1F71"
        />
      </g>
    </svg>