<svg
      width="32"
      height="32"
      viewBox="0 0 32 32"
      fill="none"
      xmlns="http://www.w3.org/2000/svg"
    >
      <g clip-path="url(#clip0_1_2050)">
        <path
          d="M17.3719 5.98832L15.7014 7.73707L15.6179 7.82332L15.0865 8.38082L14.6901 8.79582L14.1588 9.35207L14.0764 9.43832L13.8447 9.68082L13.7623 9.76832H13.7611L12.9779 10.5871V10.5883L12.8955 10.6746C12.6675 10.9138 12.4082 11.1179 12.1253 11.2808C11.9856 11.3608 11.8435 11.4308 11.6967 11.4896C11.3728 11.6201 11.0317 11.698 10.6853 11.7208C10.474 11.7358 10.2603 11.7296 10.0501 11.7033C9.59637 11.6471 9.1498 11.4946 8.74383 11.2483C8.5695 11.1433 8.39159 11.0333 8.24353 10.8796C8.24234 10.8796 8.24234 10.8796 8.24115 10.8783C8.20891 10.8458 8.17667 10.8121 8.14323 10.7758L5.10085 7.59082L5.03637 7.52332C4.98383 7.46207 4.93607 7.39582 4.89547 7.32457C4.79056 7.13915 4.73529 6.92757 4.73547 6.71207C4.73547 6.67707 4.73667 6.64207 4.74025 6.60832C4.74503 6.55582 4.75219 6.50582 4.76174 6.45832C4.76652 6.43957 4.7701 6.41957 4.77488 6.40207C4.77727 6.39457 4.77965 6.38582 4.78085 6.37832C4.82383 6.22832 4.89428 6.08707 4.99219 5.96082C5.01846 5.92832 5.04473 5.89582 5.07458 5.86457L5.12831 5.80957L8.3701 2.41582H8.3713L10.3355 0.359568C10.7737 -0.0991822 11.471 -0.119182 11.9307 0.300818L17.3719 5.98832Z"
          fill="#085CA8"
        />
        <path
          d="M11.4544 13.6297C11.1929 13.6297 10.935 13.5684 10.689 13.4509L10.0657 12.7997L9.91289 12.6409L9.88662 12.6122L9.59647 12.3084L8.14453 10.7722C8.17677 10.8072 8.20901 10.8409 8.24244 10.8747C8.3905 11.0284 8.56961 11.1397 8.74513 11.2447C9.15229 11.4909 9.59767 11.6434 10.0514 11.6997C10.2615 11.7272 10.4753 11.7322 10.6866 11.7172C11.0305 11.6947 11.372 11.6172 11.698 11.4859C11.8436 11.4272 11.9869 11.3584 12.1266 11.2772C12.4024 11.1172 12.6615 10.9159 12.8968 10.6709L12.9792 10.5847V10.5834L13.7624 9.76467H13.7636L13.846 9.67717L14.0777 9.43467L14.1601 9.34842L14.6914 8.79217L15.0878 8.37717L15.6192 7.81967L15.7027 7.73342L19.0699 4.20842L20.4586 2.63342L20.4669 2.62467L20.5409 2.54717C20.9648 2.10342 21.6526 2.10342 22.0765 2.54717L22.8371 3.34342H22.8383L22.8633 3.36967C22.5266 3.35217 22.1875 3.47967 21.9332 3.73967L19.3601 6.38842L19.3338 6.42092L14.8562 11.0334L14.8502 11.0272L13.2012 12.7234L13.1905 12.7372C13.1857 12.7434 13.1499 12.7847 13.0914 12.8459C12.9612 12.9784 12.6902 13.2284 12.3272 13.4084C12.1624 13.4897 11.9953 13.5484 11.8293 13.5847C11.7314 13.6047 11.6299 13.6184 11.532 13.6234H11.4544V13.6297Z"
          fill="#EB2227"
        />
        <path
          d="M26.9541 9.26844L26.8717 9.35594L23.2251 13.2309L19.3959 17.3009C19.2763 17.4268 19.1478 17.543 19.0114 17.6484C19.0066 17.6534 19.0018 17.6572 18.9959 17.6622C18.978 17.6759 18.9589 17.6909 18.9398 17.7047C18.9374 17.7072 18.935 17.7084 18.9338 17.7109C18.3362 18.1584 17.6196 18.3984 16.8848 18.3972C15.9415 18.3972 15.0854 18.0097 14.4514 17.3797L14.449 17.3772L14.363 17.2984L13.7039 16.6084L11.8532 14.6697L11.2359 14.0234L11.1499 13.9334C11.2502 13.9509 11.3517 13.9584 11.4544 13.9584H11.458L11.5404 13.9572C11.6586 13.9522 11.7756 13.9384 11.8914 13.9134C12.0812 13.8722 12.2723 13.8047 12.4598 13.7122C12.8645 13.5122 13.1654 13.2347 13.3099 13.0872C13.366 13.0297 13.4078 12.9809 13.4257 12.9597L14.849 11.4959L14.855 11.5022L19.7493 6.46219L19.7756 6.42969L22.1529 3.98094C22.4729 3.65344 22.9732 3.61094 23.3362 3.87219L23.8998 4.46219C23.9009 4.46219 23.9009 4.46344 23.9009 4.46344L26.9577 7.66344C26.9851 7.69219 27.0102 7.72094 27.0341 7.75219C27.3768 8.19469 27.3505 8.85469 26.9541 9.26844Z"
          fill="#EB2227"
        />
        <path
          d="M15.1415 5.02599C15.0556 5.11599 14.9135 5.11349 14.8263 5.02224C13.3839 3.50099 11.0281 3.49099 9.57497 5.00099C8.12303 6.51099 8.11228 8.97724 9.55586 10.4985L10.6854 11.691C10.6926 11.6985 10.7009 11.7085 10.7045 11.7172C10.6985 11.7172 10.6938 11.7185 10.6878 11.7185C10.4824 11.7335 10.2747 11.7272 10.0705 11.7022L9.24064 10.826C7.62631 9.12349 7.63586 6.36224 9.26213 4.67099C10.8896 2.98099 13.526 2.99224 15.1415 4.69474L15.1451 4.69849C15.2311 4.78974 15.2287 4.93599 15.1415 5.02599ZM16.8681 6.51599L16.5541 6.84474L16.0036 6.26474C15.9177 6.17349 15.9177 6.02599 16.0048 5.93599C16.092 5.84599 16.2317 5.84599 16.3188 5.93724L16.8681 6.51599Z"
          fill="#099DD9"
        />
        <path
          d="M12.1373 11.2735C12.1337 11.276 12.1313 11.2772 12.1277 11.2797C11.9916 11.3572 11.8531 11.426 11.7098 11.4835L10.1719 9.85974C9.20949 8.84474 9.07218 7.25349 9.84472 6.07599C9.87806 6.02539 9.92918 5.99067 9.98692 5.97942C10.0446 5.96818 10.1043 5.98133 10.1528 6.01599C10.2543 6.08849 10.2793 6.23349 10.2101 6.33974C9.55815 7.33224 9.67516 8.67599 10.4871 9.53224L12.1373 11.2735ZM15.939 7.48724L15.9319 7.49474L15.7002 7.73724L15.6262 7.81474L13.8961 5.98974C13.2537 5.31224 12.3164 5.07474 11.4471 5.36974C11.3313 5.40974 11.2059 5.34224 11.1677 5.22099C11.1295 5.09849 11.194 4.96724 11.311 4.92724C12.3379 4.57849 13.4507 4.86099 14.2101 5.66224L15.939 7.48724Z"
          fill="#099DD9"
        />
        <path
          d="M15.0114 8.45833L14.6973 8.78708L12.9636 6.95708C12.5409 6.50958 11.8484 6.50708 11.4221 6.95083C10.9958 7.39458 10.9923 8.11833 11.4161 8.56458L12.5338 9.74458C12.6197 9.83458 12.6197 9.98208 12.5326 10.0733C12.4466 10.1633 12.3057 10.1633 12.2185 10.0721L11.0997 8.89208C10.5051 8.26333 10.5087 7.24583 11.1081 6.62208C11.7087 5.99833 12.6818 6.00333 13.2764 6.63083L15.0114 8.45833Z"
          fill="#099DD9"
        />
        <path
          d="M14.0848 9.42941L14.0776 9.43692L13.846 9.67941L13.772 9.75691L12.0334 7.92441C11.9475 7.83441 11.9475 7.68691 12.0346 7.59566C12.1218 7.50566 12.2627 7.50567 12.3487 7.59692L14.0848 9.42941Z"
          fill="#099DD9"
        />
        <path
          d="M7.05675 30.7359C7.22272 30.7359 7.34571 30.7059 7.4269 30.6459C7.50809 30.5859 7.56063 30.4947 7.58571 30.3709C7.60123 30.2934 7.59168 30.2272 7.56063 30.1734C7.52839 30.1197 7.45675 30.0534 7.34451 29.9759L6.90153 29.6559C6.80123 29.5822 6.72481 29.5072 6.67227 29.4297C6.61974 29.3522 6.58988 29.2722 6.58033 29.1884C6.57078 29.1047 6.57675 29.0134 6.59585 28.9159C6.64362 28.6784 6.75585 28.4909 6.93257 28.3534C7.10929 28.2172 7.36123 28.1484 7.68959 28.1484C7.81735 28.1484 7.94033 28.1647 8.05735 28.1972C8.17436 28.2297 8.26153 28.2659 8.32123 28.3059C8.3463 28.3234 8.36421 28.3397 8.37615 28.3547C8.3869 28.3697 8.39048 28.3897 8.38571 28.4147L8.32959 28.6884C8.31526 28.7547 8.27944 28.7747 8.21973 28.7497C8.15526 28.7222 8.06093 28.6947 7.93556 28.6684C7.81018 28.6422 7.69675 28.6284 7.59526 28.6284C7.32541 28.6284 7.17138 28.7222 7.13317 28.9109C7.11884 28.9772 7.12959 29.0322 7.16182 29.0772C7.19526 29.1222 7.2669 29.1834 7.37556 29.2622L7.78033 29.5497C7.89854 29.6334 7.9869 29.7184 8.0466 29.8034C8.10511 29.8884 8.14093 29.9747 8.15287 30.0634C8.16481 30.1522 8.15884 30.2534 8.13735 30.3684C8.1075 30.5172 8.0466 30.6547 7.95585 30.7822C7.86511 30.9097 7.73735 31.0122 7.57377 31.0934C7.40899 31.1734 7.20839 31.2134 6.97197 31.2134C6.81317 31.2134 6.67227 31.1947 6.54929 31.1559C6.42511 31.1184 6.34153 31.0834 6.29615 31.0509C6.26511 31.0284 6.24481 31.0109 6.23645 30.9984C6.22809 30.9859 6.2269 30.9672 6.23168 30.9422L6.28779 30.6684C6.30093 30.6072 6.33675 30.5859 6.39765 30.6072C6.63287 30.6947 6.85257 30.7359 7.05675 30.7359ZM9.25018 30.7634C9.39466 30.7634 9.5666 30.7322 9.766 30.6709C9.82332 30.6547 9.846 30.6772 9.83406 30.7359L9.78272 30.9947C9.77675 31.0197 9.766 31.0397 9.75048 31.0547C9.73496 31.0697 9.71108 31.0847 9.67884 31.0997C9.53078 31.1772 9.35765 31.2159 9.15824 31.2159C8.9863 31.2159 8.84063 31.1822 8.72242 31.1147C8.60421 31.0472 8.52182 30.9397 8.47645 30.7934C8.43108 30.6472 8.42988 30.4609 8.47526 30.2359L8.55287 29.8597C8.59705 29.6397 8.67108 29.4559 8.77615 29.3097C8.88123 29.1622 9.0066 29.0534 9.15347 28.9847C9.30033 28.9147 9.46033 28.8797 9.63227 28.8797C9.83048 28.8797 9.98809 28.9184 10.1051 28.9959C10.1314 29.0109 10.1493 29.0247 10.1588 29.0397C10.1684 29.0547 10.1708 29.0747 10.1648 29.0997L10.1123 29.3584C10.0991 29.4172 10.0681 29.4397 10.0179 29.4234C9.93914 29.3947 9.8663 29.3722 9.80063 29.3559C9.73496 29.3397 9.65377 29.3309 9.55705 29.3309C9.29675 29.3309 9.13078 29.5072 9.05914 29.8597L8.98153 30.2359C8.94332 30.4272 8.95168 30.5622 9.0066 30.6434C9.06511 30.7234 9.14511 30.7634 9.25018 30.7634ZM11.2657 29.3222C11.0639 29.3222 10.8514 29.3572 10.6293 29.4272C10.572 29.4434 10.5493 29.4209 10.5612 29.3622L10.6102 29.1159C10.615 29.0909 10.6257 29.0709 10.6412 29.0547C10.6568 29.0384 10.6806 29.0247 10.7141 29.0109C10.8 28.9759 10.9027 28.9447 11.0245 28.9184C11.1463 28.8922 11.2765 28.8784 11.415 28.8784C11.5809 28.8784 11.717 28.9072 11.8233 28.9634C11.9296 29.0197 12.0024 29.1072 12.0418 29.2234C12.0812 29.3409 12.0848 29.4822 12.0502 29.6497L11.7696 31.0272C11.7648 31.0559 11.7576 31.0759 11.7493 31.0884C11.7409 31.0997 11.723 31.1097 11.6979 31.1159C11.5773 31.1484 11.4615 31.1734 11.3517 31.1909C11.2406 31.2084 11.1081 31.2172 10.9517 31.2172C10.7403 31.2172 10.5732 31.1947 10.449 31.1484C10.3248 31.1022 10.24 31.0297 10.1959 30.9309C10.1517 30.8322 10.1457 30.7009 10.1791 30.5397L10.1827 30.5197C10.2078 30.3997 10.2448 30.2984 10.2938 30.2134C10.3427 30.1297 10.4096 30.0584 10.4932 30.0009C10.5767 29.9434 10.6782 29.8997 10.7988 29.8722C10.9194 29.8434 11.0651 29.8297 11.2347 29.8297H11.5057L11.5415 29.6522C11.5666 29.5259 11.557 29.4397 11.5129 29.3934C11.4687 29.3447 11.3863 29.3222 11.2657 29.3222ZM11.3111 30.7797L11.4317 30.1822H11.1606C11.0436 30.1822 10.9553 30.1934 10.8944 30.2147C10.8347 30.2359 10.7905 30.2697 10.763 30.3159C10.7356 30.3609 10.7141 30.4247 10.6985 30.5059L10.6926 30.5297C10.677 30.6059 10.677 30.6647 10.6926 30.7047C10.7081 30.7447 10.7403 30.7734 10.7929 30.7897C10.8442 30.8059 10.9242 30.8147 11.0317 30.8147C11.1415 30.8134 11.2335 30.8022 11.3111 30.7797ZM13.969 31.0997C13.9654 31.1209 13.9535 31.1397 13.9344 31.1584C13.9182 31.1746 13.897 31.1839 13.8747 31.1847H13.5188C13.4973 31.1847 13.4818 31.1759 13.4711 31.1584C13.4604 31.141 13.4565 31.12 13.4603 31.0997L13.7314 29.7659C13.7529 29.6597 13.7576 29.5747 13.7469 29.5109C13.7362 29.4484 13.7063 29.4022 13.655 29.3734C13.6048 29.3447 13.5308 29.3297 13.4329 29.3297C13.3147 29.3297 13.1857 29.3447 13.0448 29.3734L12.6938 31.0997C12.6902 31.1234 12.6794 31.1434 12.6603 31.1597C12.6424 31.1759 12.6221 31.1847 12.5994 31.1847H12.2448C12.2221 31.1847 12.2054 31.1759 12.1947 31.1584C12.184 31.141 12.1801 31.12 12.1839 31.0997L12.5947 29.0797C12.6018 29.0397 12.6341 29.0134 12.689 28.9984C12.8251 28.9622 12.9684 28.9322 13.12 28.9109C13.2717 28.8897 13.4114 28.8784 13.5379 28.8784C13.8412 28.8784 14.049 28.9484 14.1612 29.0884C14.2747 29.2284 14.2997 29.4534 14.2388 29.7622L13.969 31.0997ZM16.6209 31.1147C16.6138 31.1559 16.5839 31.1797 16.5338 31.1872C16.4215 31.2059 16.3188 31.2147 16.2245 31.2147C16.0717 31.2147 15.9547 31.1984 15.8735 31.1659C15.7923 31.1334 15.7421 31.0722 15.7194 30.9797C15.6967 30.8872 15.7039 30.7522 15.7397 30.5734L15.9965 29.3047L15.6896 29.2472C15.6394 29.2384 15.6191 29.2109 15.6275 29.1659L15.6657 28.9847C15.6695 28.9621 15.6809 28.9416 15.6979 28.9272C15.7159 28.9109 15.7362 28.9034 15.7576 28.9034H16.0776L16.1457 28.5722C16.1541 28.5272 16.1863 28.5009 16.24 28.4909L16.6114 28.4259H16.6281C16.6687 28.4259 16.6842 28.4459 16.6747 28.4872L16.5899 28.9034H16.9803C17.0042 28.9034 17.0221 28.9109 17.0329 28.9247C17.0436 28.9397 17.0472 28.9584 17.0424 28.9834L16.9935 29.2222C16.9887 29.2447 16.9768 29.2634 16.9588 29.2797C16.9409 29.2959 16.9206 29.3034 16.8991 29.3034H16.5087L16.252 30.5722C16.2317 30.6722 16.2269 30.7347 16.2376 30.7597C16.2484 30.7847 16.2878 30.7972 16.3559 30.7972H16.603C16.6568 30.7972 16.6806 30.8172 16.6723 30.8584L16.6209 31.1147ZM18.8753 30.2097C18.8359 30.4022 18.7654 30.5747 18.6627 30.7284C18.5635 30.8792 18.4307 31.0023 18.2759 31.0872C18.1206 31.1722 17.9439 31.2159 17.7469 31.2159C17.5523 31.2159 17.3935 31.1734 17.2705 31.0872C17.1475 31.0022 17.0675 30.8822 17.0281 30.7284C16.9887 30.5747 16.9887 30.4022 17.0281 30.2097L17.0938 29.8847C17.1332 29.6922 17.2036 29.5197 17.3051 29.3659C17.4041 29.2146 17.5375 29.0914 17.6932 29.0072C17.8508 28.9222 18.0263 28.8784 18.2209 28.8784C18.4179 28.8784 18.5767 28.9209 18.6973 29.0072C18.8179 29.0922 18.8979 29.2122 18.9373 29.3659C18.9768 29.5197 18.9768 29.6922 18.9385 29.8847L18.8753 30.2097ZM18.3666 30.2097L18.4323 29.8847C18.4657 29.7159 18.4573 29.5834 18.4072 29.4847C18.3559 29.3872 18.2639 29.3372 18.129 29.3372C17.9953 29.3372 17.8842 29.3859 17.7923 29.4847C17.7015 29.5822 17.6382 29.7159 17.6048 29.8847L17.5391 30.2097C17.5057 30.3784 17.5141 30.5109 17.5654 30.6097C17.6168 30.7072 17.7087 30.7572 17.84 30.7572C17.9738 30.7572 18.086 30.7084 18.1779 30.6097C18.2699 30.5109 18.332 30.3784 18.3666 30.2097ZM22.4573 29.1184C22.3905 29.4509 22.2388 29.6922 22.0036 29.8409C21.7672 29.9897 21.4842 30.0647 21.1535 30.0647C21.1332 30.0647 21.089 30.0634 21.0209 30.0597C20.9529 30.0559 20.9075 30.0547 20.8872 30.0522C20.8669 30.0509 20.8418 30.0497 20.8144 30.0484L20.6018 31.1022C20.597 31.1259 20.5851 31.1447 20.5684 31.1609C20.5527 31.175 20.5329 31.1829 20.5123 31.1834H20.1254C20.1063 31.1834 20.0908 31.1759 20.0776 31.1597C20.0713 31.1519 20.0669 31.1425 20.0648 31.1325C20.0627 31.1225 20.063 31.1121 20.0657 31.1022L20.6293 28.3222C20.6365 28.2834 20.6532 28.2559 20.677 28.2384C20.7021 28.2209 20.7356 28.2084 20.7773 28.2022C20.9959 28.1672 21.2514 28.1484 21.5439 28.1484C21.8759 28.1484 22.129 28.2209 22.3045 28.3659C22.48 28.5109 22.5338 28.7497 22.4657 29.0809L22.4573 29.1184ZM21.9236 29.1184L21.9308 29.0834C21.9642 28.9147 21.9427 28.7947 21.8639 28.7222C21.7851 28.6497 21.6466 28.6134 21.4484 28.6134C21.3242 28.6134 21.2084 28.6197 21.1021 28.6309L20.9063 29.5922C21.0293 29.5997 21.1427 29.6034 21.2478 29.6034C21.3863 29.6034 21.5009 29.5859 21.5917 29.5509C21.6824 29.5159 21.7553 29.4634 21.809 29.3922C21.8627 29.3222 21.9021 29.2309 21.9236 29.1184ZM23.2979 29.3222C23.0962 29.3222 22.8836 29.3572 22.6615 29.4272C22.6042 29.4434 22.5815 29.4209 22.5935 29.3622L22.6424 29.1159C22.6472 29.0909 22.6579 29.0709 22.6735 29.0547C22.689 29.0384 22.7129 29.0247 22.7463 29.0109C22.8323 28.9759 22.935 28.9447 23.0568 28.9184C23.1785 28.8922 23.3087 28.8784 23.4472 28.8784C23.6132 28.8784 23.7493 28.9072 23.8556 28.9634C23.9618 29.0197 24.0347 29.1072 24.0741 29.2234C24.1135 29.3409 24.117 29.4822 24.0824 29.6497L23.8018 31.0272C23.797 31.0559 23.7899 31.0759 23.7815 31.0884C23.7732 31.0997 23.7553 31.1097 23.7302 31.1159C23.6096 31.1484 23.4938 31.1734 23.3839 31.1909C23.2729 31.2084 23.1403 31.2172 22.9839 31.2172C22.7726 31.2172 22.6054 31.1947 22.4812 31.1484C22.357 31.1022 22.2723 31.0297 22.2281 30.9309C22.1839 30.8322 22.1779 30.7009 22.2114 30.5397L22.215 30.5197C22.24 30.3997 22.277 30.2984 22.326 30.2134C22.375 30.1297 22.4418 30.0584 22.5254 30.0009C22.609 29.9434 22.7105 29.8997 22.8311 29.8722C22.9517 29.8434 23.0973 29.8297 23.2669 29.8297H23.5379L23.5738 29.6522C23.5988 29.5259 23.5893 29.4397 23.5451 29.3934C23.5009 29.3447 23.4185 29.3222 23.2979 29.3222ZM23.3433 30.7797L23.4639 30.1822H23.1929C23.0759 30.1822 22.9875 30.1934 22.9266 30.2147C22.8669 30.2359 22.8227 30.2697 22.7953 30.3159C22.7678 30.3609 22.7463 30.4247 22.7308 30.5059L22.7248 30.5297C22.7093 30.6059 22.7093 30.6647 22.7248 30.7047C22.7403 30.7447 22.7726 30.7734 22.8251 30.7897C22.8765 30.8059 22.9565 30.8147 23.0639 30.8147C23.1738 30.8134 23.2669 30.8022 23.3433 30.7797ZM26.4884 28.9747C26.4866 28.9831 26.4834 28.9912 26.4788 28.9984L25.3541 31.3584C25.28 31.5159 25.206 31.6397 25.1332 31.7297C25.0603 31.8197 24.9684 31.8859 24.8597 31.9284C24.7511 31.9722 24.6114 31.9934 24.4406 31.9934C24.375 31.9934 24.3033 31.9884 24.2257 31.9772C24.1481 31.9672 24.0872 31.9547 24.043 31.9397C23.9917 31.9247 23.969 31.9022 23.975 31.8709L24.0275 31.6122C24.0311 31.5922 24.0418 31.5759 24.0609 31.5609C24.0788 31.5459 24.0991 31.5397 24.1206 31.5397H24.1278C24.1612 31.5409 24.2329 31.5459 24.3403 31.5534C24.4478 31.5609 24.5206 31.5647 24.5576 31.5647C24.6138 31.5647 24.6627 31.5572 24.7045 31.5434C24.7463 31.5284 24.7833 31.5034 24.8167 31.4659C24.8502 31.4284 24.8836 31.3747 24.9159 31.3047L24.9708 31.1847H24.9147C24.8705 31.1847 24.8299 31.1772 24.7929 31.1634C24.7559 31.1484 24.7236 31.1172 24.6962 31.0672C24.6687 31.0172 24.652 30.9447 24.6448 30.8497L24.517 28.9997C24.5156 28.9905 24.5164 28.981 24.5194 28.9722C24.5278 28.9284 24.5576 28.9072 24.6066 28.9072H24.997C25.015 28.9072 25.0293 28.9147 25.04 28.9284C25.0508 28.9434 25.0556 28.9597 25.0556 28.9797L25.1117 30.6234C25.1117 30.6822 25.1224 30.7122 25.1451 30.7122H25.1809L25.9499 28.9759C25.969 28.9297 26 28.9072 26.0418 28.9072H26.4359C26.4538 28.9072 26.4681 28.9134 26.4788 28.9284C26.4884 28.9397 26.492 28.9559 26.4884 28.9747Z"
          fill="#099DD9"
        />
        <path
          fill-rule="evenodd"
          clip-rule="evenodd"
          d="M22.72 24.3083L20.7021 21.2795L20.4967 21.082H22.4859L23.834 23.372L23.9427 23.2795L24.757 22.012C24.9576 21.7008 24.9301 21.3383 24.6447 21.0833H26.5241L24.3522 24.3083L24.351 26.6483L24.7343 27.1245H22.3988L22.7283 26.6545C22.7271 25.8758 22.6997 25.087 22.72 24.3083ZM17.2406 21.0833C17.4018 21.3145 17.4495 21.3958 17.4674 21.602C17.4806 21.7458 17.471 21.827 17.4268 21.9608L15.9259 26.517C15.8555 26.7045 15.711 26.9108 15.4997 27.112H17.1379C17.0161 26.9995 16.9385 26.8645 16.9098 26.7045C16.8835 26.5583 16.8847 26.5033 16.9158 26.3633L17.2489 25.2808H19.1546L19.4519 26.1145C19.483 26.202 19.5009 26.2833 19.508 26.377C19.5343 26.6883 19.4388 26.9445 19.2024 27.1258H21.7695C21.5176 26.8908 21.2859 26.6445 21.1558 26.347L19.2812 21.0833H17.2406ZM18.874 24.4958H17.5104L18.1719 22.5233L18.874 24.4958ZM12.0477 21.0883L13.3385 21.0833H14.905C15.7671 21.0833 16.4716 21.8208 16.4716 22.7233V22.9258C16.4716 23.8283 15.7659 24.5158 14.905 24.5433L14.191 24.5658C14.7653 24.2895 15.0053 23.5908 14.9337 22.9608C14.8764 22.4558 14.628 21.9695 14.2137 21.9608L13.9522 21.9545V26.4508C13.9522 26.5383 13.9665 26.5745 14.0107 26.652C14.0812 26.7745 14.1743 26.897 14.271 27.0183C14.2961 27.0495 14.3212 27.082 14.3462 27.1133H12.1241C12.1576 27.0708 12.1898 27.027 12.2209 26.9833C12.2877 26.887 12.3474 26.7858 12.3928 26.672C12.4215 26.5995 12.4358 26.5445 12.4358 26.467V21.637C12.4274 21.3858 12.1886 21.242 12.0477 21.0883Z"
          fill="#085CA8"
        />
        <path
          fill-rule="evenodd"
          clip-rule="evenodd"
          d="M0 21.0557H1.79343L3.2991 25.5757L4.57552 21.8319C4.5994 21.6869 4.5791 21.6394 4.52537 21.5144C4.45493 21.3619 4.3797 21.2144 4.30806 21.0632H5.64776C5.56776 21.3682 5.45075 21.7044 5.35045 22.0119L3.6203 27.2757C3.14746 27.1769 2.62209 26.9819 2.21373 26.5769C1.90687 26.2732 1.79821 25.9269 1.64657 25.5157L0.199403 21.5044C0.144478 21.3457 0.0752239 21.2044 0 21.0557H0ZM7.16179 23.1744V26.4044C7.16179 26.5357 7.19045 26.5594 7.26806 26.6644L7.62149 27.1469H5.93313L6.21851 26.6907C6.29134 26.5657 6.32358 26.5232 6.32358 26.3769V21.8657L5.84836 21.0582H7.59881L10.4322 24.8782V21.8332C10.4322 21.6882 10.4048 21.6407 10.3307 21.5157C10.2352 21.3632 10.1361 21.2157 10.0418 21.0644H11.729L11.3767 21.5469C11.2991 21.6519 11.2704 21.6757 11.2704 21.8069V27.3019C10.6316 27.2144 10.037 27.0507 9.50687 26.3419L7.16179 23.1744Z"
          fill="#EB2227"
        />
        <path
          fill-rule="evenodd"
          clip-rule="evenodd"
          d="M26.394 22.5447C26.394 22.4147 26.412 22.286 26.4454 22.1622C26.4812 22.0397 26.5302 21.921 26.597 21.8047C26.7212 21.5835 26.9015 21.4072 27.1343 21.2772C27.3696 21.1472 27.6394 21.0835 27.9523 21.0835C28.0788 21.0835 28.1994 21.0985 28.3081 21.131C28.4191 21.1635 28.5278 21.2135 28.6376 21.2797C28.843 21.4035 29.0054 21.5797 29.1236 21.8072C29.1845 21.9272 29.2323 22.051 29.2657 22.1797C29.2967 22.3097 29.3134 22.451 29.3134 22.601C29.3134 22.8072 29.2705 23.021 29.1833 23.2397C29.0961 23.4572 28.972 23.6422 28.8096 23.7922L29.0114 23.9947C29.0926 24.0747 29.1773 24.1497 29.2681 24.2197C29.3588 24.2897 29.4591 24.3497 29.5702 24.4022C29.6812 24.456 29.797 24.4872 29.9152 24.4972C29.8102 24.5885 29.6979 24.6585 29.5821 24.7085C29.4639 24.7585 29.3409 24.781 29.2131 24.781C29.1045 24.781 28.9934 24.7585 28.8836 24.7085C28.7714 24.661 28.6663 24.601 28.5672 24.531C28.4621 24.456 28.3678 24.3797 28.283 24.3072L28.0573 24.1085C28.0418 24.1085 28.0215 24.1085 27.9964 24.111C27.9714 24.1135 27.9415 24.1172 27.9057 24.1235L27.772 24.136C27.5128 24.136 27.2788 24.0635 27.0675 23.9235C26.8561 23.7835 26.6902 23.591 26.5743 23.3485C26.517 23.2285 26.4717 23.1022 26.4418 22.9685C26.4108 22.8297 26.394 22.691 26.394 22.5447ZM27.194 22.5535C27.194 22.646 27.2036 22.7435 27.2251 22.8435C27.2406 22.9135 27.2645 23.0022 27.3003 23.1097C27.3552 23.2797 27.4364 23.4197 27.5427 23.5272C27.6478 23.6372 27.7779 23.691 27.932 23.691C28.1314 23.691 28.2794 23.6085 28.3737 23.4435C28.4681 23.2785 28.5182 23.0672 28.5182 22.8085C28.5182 22.7422 28.5099 22.6347 28.4979 22.4897C28.4836 22.3822 28.4645 22.2835 28.4406 22.1947C28.4167 22.1022 28.3893 22.021 28.3582 21.951C28.2985 21.811 28.2197 21.7047 28.117 21.6347C28.0167 21.5622 27.8961 21.5272 27.76 21.5272C27.6967 21.5272 27.637 21.5397 27.5821 21.5647C27.5284 21.5872 27.477 21.6222 27.4317 21.6685C27.3493 21.751 27.2872 21.8585 27.2502 21.9885C27.2131 22.1185 27.1928 22.261 27.1928 22.4147V22.4935C27.1928 22.5185 27.194 22.536 27.194 22.5535ZM30.3642 22.5835C30.4483 22.5701 30.5286 22.5377 30.5994 22.4885C30.6687 22.4385 30.7224 22.3722 30.7618 22.2922C30.7821 22.2535 30.7952 22.2135 30.8072 22.1722C30.8167 22.131 30.8215 22.0872 30.8215 22.0435C30.8215 21.9097 30.7881 21.7972 30.7164 21.706C30.6472 21.6172 30.5409 21.5722 30.3988 21.5722H30.3654V22.5835H30.3642ZM30.3642 22.8172V23.6385C30.3642 23.8435 30.4251 23.9822 30.5457 24.0535V24.0722H29.4078V24.0535C29.5224 23.9847 29.5821 23.8485 29.5821 23.6447V21.6347C29.5821 21.5122 29.5702 21.416 29.5511 21.3472C29.5296 21.2772 29.4818 21.2147 29.409 21.161V21.1522H30.7893C30.9433 21.1522 31.0818 21.181 31.2036 21.241C31.3266 21.301 31.4233 21.3872 31.4937 21.5072C31.5308 21.5647 31.557 21.631 31.5749 21.7035C31.5952 21.7735 31.6048 21.8522 31.6048 21.9335C31.6048 22.0435 31.5714 22.161 31.5021 22.291C31.4352 22.4197 31.3051 22.5347 31.1093 22.6347L31.6561 23.5997C31.7863 23.8085 31.9045 23.9572 32.012 24.046L31.532 24.0835L31.4114 24.0872H31.2991C31.1905 24.0872 31.1057 24.0685 31.0424 24.0297C30.9815 23.9922 30.9218 23.9185 30.8681 23.8085L30.3642 22.8172Z"
          fill="#EB2227"
        />
      </g>
      <defs>
        <clipPath id="clip0_1_2050">
          <rect width="32" height="32" fill="white" />
        </clipPath>
      </defs>
    </svg>