<svg
      width="32"
      height="33"
      viewBox="0 0 32 33"
      fill="none"
      xmlns="http://www.w3.org/2000/svg"
    >
      <path
        d="M0 16.6665C0 7.82995 7.16344 0.666504 16 0.666504C24.8366 0.666504 32 7.82995 32 16.6665C32 25.5031 24.8366 32.6665 16 32.6665C7.16344 32.6665 0 25.5031 0 16.6665Z"
        fill="#3171F6"
      />
      <path
        fill-rule="evenodd"
        clip-rule="evenodd"
        d="M16.0002 6C10.1091 6 5.3335 10.4558 5.3335 15.9524C5.3335 19.0353 6.83597 21.7905 9.19473 23.616V27.3334L12.8261 25.4567C13.8287 25.7479 14.8948 25.9048 16.0002 25.9048C21.8912 25.9048 26.6668 21.449 26.6668 15.9524C26.6668 10.4558 21.8912 6 16.0002 6ZM9.87701 18.0806C10.6612 18.0806 11.3932 18.0761 12.125 18.0823C12.5362 18.0858 12.7584 18.2609 12.7962 18.5847C12.8442 18.9946 12.605 19.2666 12.1609 19.2716C11.3233 19.2811 10.4855 19.2752 9.64768 19.2752C9.40587 19.2752 9.16349 19.2837 8.92244 19.2698C8.62187 19.2525 8.32787 19.193 8.18415 18.8829C8.04006 18.5721 8.14015 18.2932 8.33911 18.0402C9.13968 17.0221 9.9412 16.0049 10.7422 14.9871C10.7898 14.9267 10.8357 14.865 10.882 14.8045C10.833 14.7161 10.7554 14.7557 10.6949 14.7553C10.1336 14.7518 9.57215 14.7558 9.01082 14.7513C8.88254 14.7503 8.75044 14.74 8.62701 14.7076C8.36663 14.6393 8.20854 14.4309 8.20644 14.1822C8.20434 13.9331 8.35768 13.7222 8.61749 13.6489C8.74025 13.6143 8.87282 13.6023 9.00111 13.6018C9.9252 13.598 10.8493 13.5983 11.7734 13.6013C11.9367 13.6018 12.1011 13.606 12.2597 13.6608C12.6101 13.7817 12.7643 14.1047 12.6219 14.4467C12.4978 14.7444 12.3001 14.9975 12.1027 15.2488C11.4252 16.111 10.7452 16.9711 10.0663 17.8324C10.0136 17.8992 9.96292 17.9678 9.87701 18.0806ZM14.0567 17.2474C14.0617 17.4257 14.1205 17.6654 14.2747 17.8734C14.6102 18.3259 15.2984 18.3245 15.6337 17.8725C15.9242 17.4807 15.9227 16.8306 15.6319 16.4391C15.4782 16.2323 15.273 16.124 15.0169 16.1089C14.4487 16.0755 14.0509 16.515 14.0567 17.2474ZM15.8889 15.3527C16.0151 15.1938 16.1404 15.0441 16.3538 15.0007C16.7609 14.9176 17.147 15.1822 17.1525 15.5962C17.1661 16.6321 17.161 17.6682 17.1549 18.7043C17.1532 18.9872 16.9789 19.2041 16.7239 19.2908C16.4567 19.3816 16.1783 19.3154 15.9998 19.0902C15.9124 18.9799 15.875 18.9609 15.7531 19.0598C15.2812 19.4424 14.7489 19.5093 14.1735 19.3227C13.2505 19.0232 12.8705 18.304 12.7703 17.423C12.6626 16.4768 12.9776 15.6647 13.8246 15.1668C14.5277 14.7534 15.2421 14.7882 15.8889 15.3527ZM20.7838 17.151C20.7824 17.4162 20.8448 17.6636 21.0047 17.8785C21.3324 18.3191 22.0136 18.3226 22.348 17.8881C22.6494 17.4964 22.6504 16.8307 22.353 16.4348C22.1979 16.2284 21.9918 16.1219 21.7364 16.1084C21.1766 16.0787 20.7862 16.5067 20.7838 17.151ZM19.4806 17.2762C19.4411 15.9454 20.3142 14.9511 21.556 14.9129C22.8756 14.8723 23.8436 15.7596 23.883 17.0531C23.9229 18.3628 23.1194 19.2919 21.8803 19.4162C20.5341 19.5511 19.4614 18.5702 19.4806 17.2762ZM19.0266 16.2457C19.0266 17.0486 19.0306 17.8515 19.025 18.6544C19.0218 19.1136 18.6166 19.4241 18.1809 19.3141C17.9192 19.2481 17.7236 18.9705 17.7231 18.647C17.7211 17.2743 17.7223 15.9016 17.7223 14.5289C17.7223 14.2872 17.7189 14.0453 17.7231 13.8037C17.7301 13.4053 17.9837 13.1467 18.3649 13.143C18.7586 13.1391 19.0226 13.3987 19.0252 13.8112C19.0302 14.6227 19.0266 15.4342 19.0266 16.2457Z"
        fill="white"
      />
    </svg>