 <svg
      width="32"
      height="33"
      viewBox="0 0 32 33"
      fill="none"
      xmlns="http://www.w3.org/2000/svg"
    >
      <path
        d="M7.84552 7.93196L26.906 5.14548C25.8411 4.2238 24.4546 3.6665 22.9395 3.6665H9.06047C5.70863 3.6665 3 6.38153 3 9.72531V23.5934C3 26.6014 5.19406 29.1021 8.06707 29.5736L5.54426 11.0185C5.32985 9.5324 6.38043 8.14631 7.84552 7.93196Z"
        fill="#0068FF"
      />
      <path
        d="M26.906 5.146L7.84551 7.93248C6.38042 8.14682 5.33698 9.54006 5.55139 11.0262L8.06706 29.5813C8.38866 29.6313 8.72456 29.667 9.06046 29.667H22.9395C26.2914 29.667 29 26.952 29 23.6082V9.71868C28.9928 7.88961 28.1924 6.25345 26.906 5.146Z"
        fill="white"
      />
      <path
        d="M26.9059 5.146L26.8416 5.16029C28.1495 6.30346 28.9356 7.98964 28.9356 9.72583V23.5796C28.9356 26.8948 26.2341 29.5956 22.918 29.5956H9.05328C8.73883 29.5956 8.37434 29.5598 8.05273 29.5098L8.05989 29.5813C8.39579 29.6384 8.71739 29.667 9.04614 29.667H22.8966C26.2556 29.667 28.9857 26.9377 28.9857 23.5796V9.71868C28.9928 7.94677 28.2424 6.30346 26.9059 5.146Z"
        fill="#B3B3B3"
      />
      <path
        d="M19.1943 12.2909C19.0728 12.1695 18.937 12.1052 18.744 12.1052C18.4867 12.1052 18.2938 12.2266 18.1794 12.4838C17.9221 12.1766 17.5648 12.0337 17.1146 12.0337C16.5714 12.0337 16.1212 12.2481 15.7424 12.6482C15.3636 13.0769 15.1992 13.5699 15.1992 14.1629C15.1992 14.7559 15.385 15.2703 15.7424 15.6776C16.1212 16.1063 16.5714 16.292 17.1146 16.292C17.5648 16.292 17.915 16.1491 18.1794 15.8419C18.3009 16.0991 18.4867 16.2206 18.744 16.2206C18.9298 16.2206 19.0728 16.1491 19.1943 16.0348C19.3158 15.9205 19.3586 15.7776 19.3586 15.5847V12.6768C19.3801 12.5767 19.3086 12.4124 19.1943 12.2909ZM17.9079 14.9131C17.7649 15.0988 17.5505 15.1989 17.2932 15.1989C17.0359 15.1989 16.8215 15.106 16.6786 14.9131C16.5357 14.7273 16.4428 14.4844 16.4428 14.1772C16.4428 13.8914 16.5142 13.6556 16.6786 13.4698C16.8215 13.2841 17.0359 13.184 17.2932 13.184C17.5505 13.184 17.7649 13.2769 17.9079 13.4698C18.0508 13.6556 18.1437 13.8985 18.1437 14.1772C18.1223 14.463 18.0508 14.7345 17.9079 14.9131Z"
        fill="#0068FF"
      />
      <path
        d="M20.7665 16.0701C20.645 16.1916 20.5092 16.2559 20.3163 16.2559C20.1305 16.2559 19.9875 16.1844 19.866 16.0701C19.7445 15.9487 19.7017 15.8129 19.7017 15.62V10.4186C19.7017 10.2542 19.7517 10.1113 19.866 9.96848C19.9875 9.84701 20.1233 9.78271 20.3163 9.78271C20.5021 9.78271 20.645 9.85416 20.7665 9.96848C20.888 10.0899 20.9309 10.2257 20.9309 10.4186V15.62C20.9381 15.8129 20.888 15.9558 20.7665 16.0701Z"
        fill="#0068FF"
      />
      <path
        d="M24.8544 12.6696C24.4542 12.2409 23.9539 12.0552 23.3393 12.0552C22.7246 12.0552 22.2315 12.2695 21.8241 12.6696C21.4454 13.0697 21.231 13.5913 21.231 14.2057C21.231 14.8202 21.4168 15.3132 21.8241 15.7419C22.2029 16.142 22.7246 16.3563 23.3393 16.3563C23.9539 16.3563 24.447 16.142 24.8544 15.7419C25.2332 15.3418 25.419 14.8202 25.419 14.2272C25.4547 13.5913 25.2689 13.0769 24.8544 12.6696ZM23.9825 14.9131C23.8395 15.0988 23.6251 15.1989 23.3678 15.1989C23.1106 15.1989 22.8962 15.106 22.7532 14.9131C22.6103 14.7273 22.5174 14.4844 22.5174 14.1772C22.5174 13.8914 22.5888 13.6556 22.7532 13.4698C22.8962 13.2841 23.1106 13.184 23.3678 13.184C23.6251 13.184 23.8395 13.2769 23.9825 13.4698C24.1254 13.6556 24.2183 13.8985 24.2183 14.1772C24.1969 14.463 24.1254 14.7345 23.9825 14.9131Z"
        fill="#0068FF"
      />
      <path
        d="M14.5132 12.1974C14.942 11.633 15.1779 11.2543 15.1779 11.0614C15.1779 10.6112 14.892 10.3755 14.3274 10.3755H11.3257C11.0899 10.3755 10.8969 10.4255 10.7826 10.5398C10.6611 10.6613 10.5968 10.797 10.5968 10.9685C10.5968 11.1542 10.6682 11.2971 10.7826 11.3972C10.9041 11.5186 11.0899 11.5615 11.3257 11.5615H13.384L10.7397 14.9624C10.5753 15.1768 10.4824 15.3911 10.4824 15.5555C10.4824 16.0484 10.8112 16.2914 11.4758 16.2914H14.5704C15.0635 16.2914 15.3065 16.077 15.3065 15.6769C15.3065 15.2482 15.0707 15.0625 14.5704 15.0625H12.2977L14.5132 12.1974Z"
        fill="#0068FF"
      />
      <path
        d="M13.0412 19.5571H12.2622V21.1651H13.0412C13.277 21.1651 13.47 21.0937 13.6058 20.9293C13.7487 20.7864 13.8202 20.572 13.8202 20.3647C13.8202 20.1289 13.7487 19.9359 13.6058 19.8001C13.47 19.6286 13.2842 19.5571 13.0412 19.5571Z"
        fill="#39B54A"
      />
      <path
        d="M16.9001 21.0356C16.6642 21.0356 16.4713 21.1285 16.3355 21.2928C16.1926 21.4787 16.1211 21.6931 16.1211 21.9575C16.1211 22.2219 16.1926 22.4506 16.3355 22.6221C16.4784 22.808 16.6642 22.8794 16.9001 22.8794C17.1359 22.8794 17.3289 22.7865 17.4647 22.6221C17.6076 22.4363 17.6791 22.2219 17.6791 21.9575C17.6791 21.7002 17.6076 21.4644 17.4647 21.2928C17.3146 21.1285 17.1288 21.0356 16.9001 21.0356Z"
        fill="#39B54A"
      />
      <path
        d="M22.3389 17.2632H11.147C10.7682 17.2632 10.4609 17.5704 10.4609 17.9491V24.4938C10.4609 24.8724 10.7682 25.1797 11.147 25.1797H19.9662C19.8733 25.0868 19.8232 24.9939 19.8232 24.8724C19.8232 24.7796 19.8447 24.6867 19.8947 24.5652L20.3235 23.6435L19.1657 20.757C19.1443 20.6856 19.1157 20.5927 19.1157 20.4998C19.1157 20.3783 19.1657 20.264 19.2801 20.1926C19.373 20.0997 19.4945 20.0497 19.6088 20.0497C19.8661 20.0497 20.0376 20.1711 20.1305 20.4284L20.8381 22.3932L21.5956 20.4284C21.6885 20.1926 21.8529 20.0497 22.1173 20.0497C22.2388 20.0497 22.3532 20.0997 22.4461 20.1926C22.539 20.2855 22.6105 20.3783 22.6105 20.4998C22.6105 20.5927 22.589 20.6856 22.5604 20.757L20.8595 24.8939C20.8095 25.0153 20.7666 25.1082 20.6951 25.1797H22.3246C22.7034 25.1797 23.0107 24.8724 23.0107 24.4938V17.9491C23.0178 17.549 22.7034 17.2632 22.3389 17.2632ZM14.4417 21.6573C14.0844 21.9859 13.6413 22.1288 13.1195 22.1288H12.2691V23.3577C12.2691 23.5435 12.219 23.6864 12.1047 23.7864C12.0118 23.8793 11.8689 23.9508 11.7045 23.9508C11.5401 23.9508 11.3972 23.9007 11.3043 23.7864C11.2113 23.6935 11.1399 23.5292 11.1399 23.3577V19.1066C11.1399 18.7065 11.3257 18.5135 11.7331 18.5135H13.0838C13.6484 18.5135 14.0987 18.6779 14.4774 19.0065C14.8348 19.3352 15.0206 19.7853 15.0206 20.3069C15.0063 20.8928 14.8133 21.3215 14.4417 21.6573ZM18.8084 23.3363C18.8084 23.5006 18.7584 23.6221 18.644 23.7364C18.5225 23.8579 18.4082 23.9007 18.2438 23.9007C18.0079 23.9007 17.815 23.7793 17.7006 23.5435C17.4648 23.8293 17.136 23.9722 16.7072 23.9722C16.2141 23.9722 15.7853 23.7864 15.4565 23.4077C15.1278 23.0291 14.9348 22.5575 14.9348 21.9931C14.9348 21.4286 15.0992 20.9785 15.4565 20.5784C15.7853 20.1997 16.2141 20.014 16.7072 20.014C17.136 20.014 17.4433 20.1569 17.7006 20.4426C17.8221 20.2069 17.9865 20.0854 18.2438 20.0854C18.4082 20.0854 18.5511 20.1354 18.644 20.2497C18.7655 20.3712 18.8084 20.4855 18.8084 20.6498V23.3363Z"
        fill="#39B54A"
      />
    </svg>